SplineFontDB: 3.2
FontName: Selwyn-Selwyn
FullName: Selwyn 
FamilyName: Selwyn
Weight: Regular
Copyright: (c) RISC OS Developments Ltd, released under Apache License 2.0
Version: 1
ItalicAngle: 0
UnderlinePosition: 0
UnderlineWidth: 0
Ascent: 400
Descent: 100
InvalidEm: 0
LayerCount: 2
Layer: 0 0 "Back" 1
Layer: 1 0 "Fore" 0
StyleMap: 0x0040
FSType: 0
OS2Version: 0
OS2_WeightWidthSlopeOnly: 0
OS2_UseTypoMetrics: 0
CreationTime: 1653360704
ModificationTime: 1653360705
PfmFamily: 17
TTFWeight: 400
TTFWidth: 5
LineGap: 45
VLineGap: 45
OS2TypoAscent: 0
OS2TypoAOffset: 1
OS2TypoDescent: 0
OS2TypoDOffset: 1
OS2TypoLinegap: 45
OS2WinAscent: 0
OS2WinAOffset: 1
OS2WinDescent: 0
OS2WinDOffset: 1
HheadAscent: 0
HheadAOffset: 1
HheadDescent: 0
HheadDOffset: 1
Lookup: 258 0 0 "'kern' Horizontal Kerning in Latin lookup 0" { "'kern' Horizontal Kerning in Latin lookup 0 subtable"  } ['kern' ('latn' <'dflt' > ) ]
DEI: 91125
Encoding: Custom
UnicodeInterp: none
NameList: AGL For New Fonts
DisplaySize: -24
AntiAlias: 1
FitToEm: 0
BeginChars: 256 202

StartChar: exclam
Encoding: 33 33 1
Width: 487
VWidth: 0
Flags: HMW
LayerCount: 2
Fore
SplineSet
104 288 m 0
 88 304 70 304 57 291 c 0
 44 278 45 257 61 241 c 0
 74 228 99 223 111 235 c 0
 123 247 123 269 104 288 c 0
212 113 m 0
 148 101 114 117 117 99 c 0
 119 86 123 64 109 50 c 0
 90 31 56 30 31 55 c 0
 14 72 14 103 29 118 c 0
 67 156 128 85 188 153 c 0
 163 186 137 204 104 210 c 0
 35 224 28 269 41 292 c 0
 54 315 88 317 110 300 c 0
 134 282 138 250 132 241 c 0
 119 221 128 213 139 211 c 0
 167 205 185 191 211 163 c 0
 273 164 322 172 366 172 c 0
 412 172 439 163 471 138 c 0
 260 115 l 0
 309 58 l 0
 262 55 l 0
 212 113 l 0
39 107 m 0
 27 95 29 77 42 64 c 0
 62 44 87 46 99 58 c 0
 110 69 110 92 99 103 c 0
 81 121 53 121 39 107 c 0
EndSplineSet
EndChar

StartChar: quotedbl
Encoding: 34 34 2
Width: 480
VWidth: 0
Flags: HMW
LayerCount: 2
Fore
SplineSet
97 66 m 0
 111 80 111 103 96 118 c 0
 85 129 58 130 42 114 c 0
 29 101 30 77 43 64 c 0
 58 49 81 50 97 66 c 0
97 280 m 0
 81 296 58 297 43 282 c 0
 30 269 29 245 42 232 c 0
 58 216 85 217 96 228 c 0
 111 243 111 266 97 280 c 0
117 223 m 0
 128 212 158 224 207 194 c 0
 345 248 l 0
 419 278 433 269 464 244 c 0
 276 173 l 0
 464 102 l 0
 431 76 422 66 320 107 c 0
 207 152 l 0
 158 122 128 134 117 123 c 0
 106 112 139 87 108 56 c 0
 86 34 50 35 30 55 c 0
 12 73 12 103 33 124 c 0
 71 162 141 115 184 173 c 0
 141 231 71 184 33 222 c 0
 12 243 12 273 30 291 c 0
 50 311 86 312 108 290 c 0
 139 259 106 234 117 223 c 0
EndSplineSet
EndChar

StartChar: numbersign
Encoding: 35 35 3
Width: 487
VWidth: 0
Flags: HMW
LayerCount: 2
Fore
SplineSet
39 240 m 0
 53 226 81 226 99 244 c 0
 110 255 110 278 99 289 c 0
 87 301 62 303 42 283 c 0
 29 270 27 252 39 240 c 0
104 59 m 0
 123 78 123 100 111 112 c 0
 99 124 74 119 61 106 c 0
 45 90 44 69 57 56 c 0
 70 43 88 43 104 59 c 0
132 106 m 0
 138 97 134 65 110 47 c 0
 88 30 54 32 41 55 c 0
 28 78 35 123 104 137 c 0
 137 143 163 161 188 194 c 0
 128 262 67 191 29 229 c 0
 14 244 14 275 31 292 c 0
 56 317 90 316 109 297 c 0
 123 283 119 261 117 248 c 0
 114 230 148 246 212 234 c 0
 262 292 l 0
 309 289 l 0
 260 232 l 0
 471 209 l 0
 439 184 412 175 366 175 c 0
 322 175 273 183 211 184 c 0
 185 156 167 142 139 136 c 0
 128 134 119 126 132 106 c 0
EndSplineSet
EndChar

StartChar: dollar
Encoding: 36 36 4
Width: 490
VWidth: 0
Flags: HMW
LayerCount: 2
Fore
SplineSet
447 68 m 0
 292 164 l 0
 244 136 l 0
 337 73 l 0
 376 46 412 46 447 68 c 0
170 194 m 0
 217 221 l 0
 208 239 163 208 135 231 c 0
 129 237 171 276 132 315 c 0
 109 338 69 339 48 318 c 0
 22 292 22 253 44 231 c 0
 86 189 144 224 170 194 c 0
115 295 m 0
 101 309 82 309 70 297 c 0
 57 284 57 264 69 252 c 0
 82 239 102 239 114 251 c 0
 126 263 126 284 115 295 c 0
119 304 m 0
 138 285 137 261 121 245 c 0
 102 226 76 226 58 244 c 0
 41 261 40 286 58 304 c 0
 76 322 102 321 119 304 c 0
119 43 m 0
 102 26 76 25 58 43 c 0
 40 61 41 86 58 103 c 0
 76 121 102 121 121 102 c 0
 137 86 138 62 119 43 c 0
115 52 m 0
 126 63 126 84 114 96 c 0
 102 108 82 108 69 95 c 0
 57 83 57 63 70 50 c 0
 82 38 101 38 115 52 c 0
231 130 m 0
 190 97 188 125 147 112 c 0
 174 84 166 43 144 21 c 0
 116 -7 68 -7 40 21 c 0
 11 50 10 97 38 125 c 0
 74 161 120 144 146 154 c 0
 155 157 168 158 168 174 c 0
 168 191 154 190 146 193 c 0
 120 202 74 185 38 221 c 0
 10 249 11 296 40 325 c 0
 68 353 116 353 144 325 c 0
 166 303 173 266 149 236 c 0
 183 224 206 252 230 228 c 0
 316 277 l 0
 383 315 431 318 473 267 c 0
 307 171 l 0
 470 70 l 0
 422 27 375 29 316 70 c 0
 231 130 l 0
221 137 m 0
 450 270 l 0
 414 294 387 295 324 260 c 0
 177 176 l 0
 178 163 176 155 164 148 c 0
 124 128 83 154 44 115 c 0
 22 93 22 54 48 28 c 0
 69 7 115 15 132 31 c 0
 171 70 129 109 134 116 c 0
 148 138 193 112 221 137 c 0
247 193 m 0
 255 182 255 172 248 159 c 0
 243 149 227 148 219 158 c 0
 210 170 210 184 216 192 c 0
 225 204 239 204 247 193 c 0
229 164 m 0
 246 164 247 193 232 193 c 0
 217 193 214 164 229 164 c 0
EndSplineSet
EndChar

StartChar: percent
Encoding: 37 37 5
Width: 394
VWidth: 0
Flags: HMW
LayerCount: 2
Fore
SplineSet
32 139 m 0
 13 158 13 186 32 205 c 0
 45 218 61 221 76 222 c 0
 66 235 57 249 57 267 c 0
 57 294 76 314 103 314 c 0
 122 314 135 304 148 295 c 0
 149 310 152 326 165 339 c 0
 184 358 212 358 231 339 c 0
 244 326 247 310 249 296 c 0
 260 305 274 314 292 314 c 0
 319 314 339 295 339 268 c 0
 339 249 330 236 320 223 c 0
 335 221 351 218 364 205 c 0
 383 186 383 158 364 139 c 0
 351 126 335 123 320 122 c 0
 329 111 338 97 338 79 c 0
 338 52 318 32 291 32 c 0
 273 32 260 41 249 51 c 0
 247 36 244 20 231 7 c 0
 212 -12 184 -12 165 7 c 0
 152 20 149 36 147 51 c 0
 136 42 122 33 104 33 c 0
 77 33 57 53 57 80 c 0
 57 98 66 111 76 122 c 0
 61 123 45 126 32 139 c 0
179 228 m 0
 187 230 l 0
 179 278 172 300 183 311 c 0
 192 320 204 320 213 311 c 0
 224 300 217 278 209 230 c 0
 217 228 l 0
 238 279 244 310 223 331 c 0
 209 345 187 345 173 331 c 0
 152 310 158 279 179 228 c 0
145 198 m 0
 149 205 l 0
 110 234 89 244 89 260 c 0
 89 273 98 281 110 281 c 0
 126 281 136 261 165 221 c 0
 172 225 l 0
 151 276 133 302 103 302 c 0
 83 302 68 287 68 267 c 0
 68 237 94 220 145 198 c 0
143 153 m 0
 141 161 l 0
 93 153 71 146 60 157 c 0
 51 166 51 178 60 187 c 0
 71 198 93 191 141 183 c 0
 143 191 l 0
 92 212 61 218 40 197 c 0
 26 183 26 161 40 147 c 0
 61 126 92 132 143 153 c 0
166 140 m 0
 183 123 213 123 230 140 c 0
 249 159 249 187 230 206 c 0
 213 223 183 223 166 206 c 0
 147 187 147 159 166 140 c 0
111 65 m 0
 98 65 90 74 90 87 c 0
 90 102 110 113 150 141 c 0
 146 148 l 0
 95 127 69 109 69 80 c 0
 69 60 84 44 104 44 c 0
 134 44 151 70 173 121 c 0
 165 126 l 0
 137 86 127 65 111 65 c 0
306 261 m 0
 306 245 286 234 246 206 c 0
 250 199 l 0
 301 220 327 238 327 268 c 0
 327 287 312 303 292 303 c 0
 262 303 245 277 223 226 c 0
 231 222 l 0
 259 261 269 282 285 282 c 0
 298 282 306 273 306 261 c 0
284 65 m 0
 269 65 258 85 230 125 c 0
 223 121 l 0
 244 70 262 44 291 44 c 0
 311 44 327 59 327 79 c 0
 327 109 301 126 250 147 c 0
 245 140 l 0
 285 112 305 102 305 86 c 0
 305 73 297 65 284 65 c 0
173 15 m 0
 187 1 209 1 223 15 c 0
 244 36 238 67 217 118 c 0
 209 116 l 0
 217 68 224 46 213 35 c 0
 204 26 192 26 183 35 c 0
 172 46 179 68 187 116 c 0
 179 118 l 0
 158 67 152 36 173 15 c 0
356 147 m 0
 370 161 370 183 356 197 c 0
 335 218 304 212 253 191 c 0
 255 183 l 0
 303 191 325 198 336 187 c 0
 345 178 345 166 336 157 c 0
 325 146 303 153 255 161 c 0
 253 153 l 0
 304 132 335 126 356 147 c 0
EndSplineSet
EndChar

StartChar: ampersand
Encoding: 38 38 6
Width: 394
VWidth: 0
Flags: HMW
LayerCount: 2
Fore
SplineSet
176 190 m 0
 153 151 153 139 169 125 c 0
 165 107 149 84 130 67 c 0
 124 68 121 71 117 73 c 0
 110 63 109 50 115 42 c 0
 153 -2 240 -11 316 65 c 0
 372 121 372 225 312 285 c 0
 242 353 146 352 82 288 c 0
 20 225 20 122 78 63 c 0
 73 60 63 62 56 69 c 0
 2 121 1 231 70 301 c 0
 139 370 252 372 326 298 c 0
 393 231 393 116 331 53 c 0
 249 -29 143 -16 107 28 c 0
 90 50 95 66 108 78 c 0
 88 102 111 160 146 224 c 0
 183 282 199 316 242 301 c 0
 243 280 233 252 219 237 c 0
 200 240 192 222 176 190 c 0
178 118 m 0
 182 116 185 113 189 110 c 0
 191 108 193 106 194 103 c 0
 195 100 193 96 192 93 c 0
 187 81 182 70 173 61 c 0
 170 58 165 54 161 54 c 0
 158 54 156 55 153 56 c 0
 149 58 145 59 141 61 c 0
 149 69 156 77 162 86 c 0
 169 96 173 107 178 118 c 0
273 286 m 0
 279 270 271 243 260 232 c 0
 255 229 243 230 235 233 c 0
 247 251 255 275 255 298 c 0
 263 293 271 293 273 286 c 0
EndSplineSet
EndChar

StartChar: quotesingle
Encoding: 39 39 7
Width: 395
VWidth: 0
Flags: HMW
LayerCount: 2
Fore
SplineSet
315 291 m 0
 251 355 145 355 81 291 c 0
 16 226 16 120 81 55 c 0
 145 -9 251 -9 315 55 c 0
 380 120 380 226 315 291 c 0
178 319 m 0
 190 320 207 320 217 319 c 0
 230 228 l 0
 209 238 187 238 167 229 c 0
 178 319 l 0
89 76 m 0
 75 91 65 107 61 119 c 0
 134 172 l 0
 136 148 148 130 168 117 c 0
 89 76 l 0
262 172 m 0
 336 120 l 0
 332 107 322 91 308 76 c 0
 228 117 l 0
 248 130 260 148 262 172 c 0
325 45 m 0
 256 -24 140 -24 71 45 c 0
 0 116 0 230 71 301 c 0
 140 370 256 370 325 301 c 0
 396 230 396 116 325 45 c 0
232 207 m 0
 251 188 251 158 232 139 c 0
 213 120 183 120 164 139 c 0
 145 158 145 188 164 207 c 0
 183 226 213 226 232 207 c 0
EndSplineSet
EndChar

StartChar: parenleft
Encoding: 40 40 8
Width: 395
VWidth: 0
Flags: HMW
LayerCount: 2
Fore
SplineSet
375 183 m 0
 382 177 382 169 375 163 c 0
 369 156 319 154 278 154 c 0
 243 106 l 0
 261 106 l 0
 268 106 268 90 261 90 c 0
 232 90 l 0
 205 54 l 0
 226 54 l 0
 233 54 233 38 226 38 c 0
 195 38 l 0
 168 1 l 0
 161 -8 147 -7 135 -7 c 0
 179 96 l 0
 201 145 182 152 159 155 c 0
 81 160 l 0
 41 111 l 0
 18 109 l 0
 38 167 l 0
 21 173 l 0
 38 180 l 0
 18 238 l 0
 41 236 l 0
 81 186 l 0
 159 191 l 0
 182 194 201 202 179 251 c 0
 135 353 l 0
 147 353 161 354 168 345 c 0
 195 308 l 0
 226 308 l 0
 233 308 233 292 226 292 c 0
 205 292 l 0
 232 256 l 0
 261 256 l 0
 268 256 268 240 261 240 c 0
 243 240 l 0
 278 192 l 0
 319 192 369 190 375 183 c 0
EndSplineSet
EndChar

StartChar: parenright
Encoding: 41 41 9
Width: 345
VWidth: 0
Flags: HMW
LayerCount: 2
Fore
SplineSet
213 189 m 0
 319 269 l 0
 27 269 l 0
 135 189 l 0
 154 224 194 224 213 189 c 0
213 159 m 0
 194 124 154 124 135 159 c 0
 27 79 l 0
 319 79 l 0
 213 159 l 0
214 167 m 0
 319 88 l 0
 319 260 l 0
 214 181 l 0
 216 177 216 171 214 167 c 0
134 167 m 0
 132 171 132 177 134 181 c 0
 27 260 l 0
 27 88 l 0
 134 167 l 0
18 70 m 0
 18 278 l 0
 328 278 l 0
 328 70 l 0
 18 70 l 0
EndSplineSet
EndChar

StartChar: asterisk
Encoding: 42 42 10
Width: 480
VWidth: 0
Flags: HMW
LayerCount: 2
Fore
SplineSet
80 98 m 0
 67 98 53 98 53 169 c 0
 53 236 80 236 93 236 c 0
 135 236 195 284 234 284 c 0
 264 284 334 277 432 241 c 0
 471 226 478 206 427 198 c 0
 382 192 353 214 323 208 c 0
 344 194 348 157 313 152 c 0
 331 141 330 112 301 112 c 0
 305 93 298 78 274 71 c 0
 259 67 217 62 194 62 c 0
 149 62 152 98 80 98 c 0
38 210 m 0
 30 179 30 139 35 121 c 0
 42 92 52 82 66 83 c 0
 63 70 36 71 26 103 c 0
 16 134 15 190 30 228 c 0
 43 260 66 261 69 248 c 0
 55 249 45 239 38 210 c 0
EndSplineSet
EndChar

StartChar: plus
Encoding: 43 43 11
Width: 469
VWidth: 0
Flags: HMW
LayerCount: 2
Fore
SplineSet
417 222 m 0
 434 225 433 246 416 250 c 0
 376 259 318 259 267 257 c 0
 301 216 l 0
 342 218 383 218 417 222 c 0
332 121 m 0
 311 108 286 100 268 97 c 0
 262 77 292 77 310 83 c 0
 332 91 350 105 332 121 c 0
118 114 m 0
 118 89 l 0
 79 87 l 0
 68 75 l 0
 18 83 l 0
 18 253 l 0
 118 257 l 0
 118 240 l 0
 176 237 188 305 255 270 c 0
 297 274 363 275 418 268 c 0
 457 263 461 227 438 213 c 0
 419 201 376 201 334 198 c 0
 339 192 339 181 337 171 c 0
 354 163 355 142 348 128 c 0
 361 127 368 97 338 79 c 0
 317 67 279 59 257 80 c 0
 233 80 l 0
 160 77 168 115 118 114 c 0
254 132 m 0
 243 99 296 119 324 132 c 0
 338 138 333 163 316 156 c 0
 298 148 280 138 254 132 c 0
314 195 m 0
 287 170 259 170 242 182 c 0
 232 176 221 173 221 164 c 0
 223 135 240 140 279 154 c 0
 325 170 327 184 314 195 c 0
248 253 m 0
 204 293 160 222 118 223 c 0
 118 128 l 0
 168 129 160 91 233 94 c 0
 254 94 l 0
 253 101 l 0
 238 104 234 116 238 129 c 0
 217 133 210 140 208 156 c 0
 183 155 l 0
 148 166 l 0
 147 170 l 0
 153 175 l 0
 188 162 211 169 229 191 c 0
 208 218 l 0
 216 222 l 0
 258 174 291 181 291 204 c 0
 291 219 260 242 248 253 c 0
76 110 m 0
 103 110 l 0
 103 240 l 0
 69 242 l 0
 76 110 l 0
EndSplineSet
EndChar

StartChar: comma
Encoding: 44 44 12
Width: 274
VWidth: 0
Flags: HMW
LayerCount: 2
Fore
SplineSet
131 142 m 0
 144 116 l 0
 165 136 l 0
 131 142 l 0
67 344 m 0
 76 354 94 358 105 346 c 0
 112 337 117 333 127 305 c 0
 156 220 l 0
 190 303 l 0
 199 325 206 333 209 337 c 0
 220 348 235 346 242 339 c 0
 249 332 255 319 244 280 c 0
 219 200 l 0
 226 199 236 194 244 188 c 0
 267 163 263 72 221 31 c 0
 174 -17 90 -18 52 20 c 0
 34 38 -20 131 49 147 c 0
 33 185 64 208 96 198 c 0
 65 286 l 0
 56 309 56 334 67 344 c 0
67 180 m 0
 53 166 59 162 77 131 c 0
 114 73 137 100 129 113 c 0
 112 143 86 200 67 180 c 0
43 130 m 0
 13 114 40 60 63 37 c 0
 95 4 162 0 206 45 c 0
 249 87 247 158 232 173 c 0
 208 197 186 186 123 195 c 0
 116 173 122 150 179 151 c 0
 205 153 l 0
 212 145 l 0
 208 139 l 0
 164 125 128 89 149 35 c 0
 145 31 l 0
 132 39 124 61 123 78 c 0
 111 76 l 0
 113 32 64 31 39 86 c 0
 46 93 l 0
 65 61 97 63 97 72 c 0
 97 84 60 139 43 130 c 0
214 324 m 0
 212 321 203 296 197 281 c 0
 168 208 l 0
 200 204 l 0
 228 279 l 0
 236 311 239 321 234 325 c 0
 229 330 222 331 214 324 c 0
113 295 m 0
 105 320 100 329 97 333 c 0
 89 340 80 338 75 332 c 0
 70 328 75 299 83 280 c 0
 109 204 l 0
 113 211 l 0
 121 211 l 0
 141 210 l 0
 113 295 l 0
EndSplineSet
EndChar

StartChar: hyphen
Encoding: 45 45 13
Width: 427
VWidth: 0
Flags: HMW
LayerCount: 2
Fore
SplineSet
66 142 m 0
 48 100 l 0
 66 86 81 134 66 142 c 0
189 181 m 0
 152 139 l 0
 166 127 190 149 189 181 c 0
94 74 m 0
 69 47 l 0
 25 31 l 0
 15 28 15 28 19 38 c 0
 43 84 l 0
 47 91 l 0
 41 99 l 0
 55 137 66 162 80 206 c 0
 108 234 141 262 174 280 c 0
 206 261 l 0
 239 301 l 0
 270 339 283 292 272 279 c 0
 237 238 l 0
 260 221 l 0
 291 202 l 0
 315 197 l 0
 322 207 l 0
 394 203 l 0
 407 168 l 0
 410 115 l 0
 393 42 l 0
 321 42 l 0
 311 72 l 0
 266 62 l 0
 217 76 145 51 94 74 c 0
31 43 m 0
 36 41 52 48 63 52 c 0
 68 59 58 73 48 72 c 0
 42 71 32 50 31 43 c 0
128 78 m 0
 136 85 132 100 129 111 c 0
 141 107 143 96 134 77 c 0
 145 67 202 78 227 78 c 0
 241 78 282 67 320 88 c 0
 327 120 332 142 317 187 c 0
 287 189 l 0
 228 228 l 0
 201 196 l 0
 201 181 l 0
 199 169 l 0
 177 137 l 0
 193 135 207 142 219 147 c 0
 218 125 177 128 135 126 c 0
 114 116 l 0
 88 105 88 75 128 78 c 0
378 64 m 0
 392 125 383 155 375 192 c 0
 333 192 l 0
 342 147 339 105 329 57 c 0
 378 64 l 0
79 99 m 0
 97 115 108 138 119 161 c 0
 198 252 l 0
 178 271 166 273 137 246 c 0
 116 227 105 224 85 196 c 0
 69 149 l 0
 78 140 l 0
 81 126 l 0
 70 100 l 0
 79 99 l 0
EndSplineSet
EndChar

StartChar: period
Encoding: 46 46 14
Width: 455
VWidth: 0
Flags: HMW
LayerCount: 2
Fore
SplineSet
327 60 m 0
 113 180 l 0
 60 169 l 0
 276 43 l 0
 327 60 l 0
127 311 m 0
 64 301 l 0
 28 241 l 0
 47 178 l 0
 106 189 l 0
 145 252 l 0
 127 311 l 0
363 124 m 0
 152 242 l 0
 119 189 l 0
 335 67 l 0
 363 124 l 0
351 182 m 0
 138 306 l 0
 157 249 l 0
 365 133 l 0
 351 182 l 0
406 89 m 0
 366 162 l 0
 376 124 l 0
 344 56 l 0
 296 40 l 0
 380 40 l 0
 428 40 432 44 406 89 c 0
433 68 m 0
 446 47 436 29 405 29 c 0
 276 29 l 0
 38 169 l 0
 18 246 l 0
 57 310 l 0
 132 321 l 0
 365 187 l 0
 433 68 l 0
66 222 m 0
 59 229 58 248 77 267 c 0
 91 281 99 279 104 274 c 0
 111 267 112 248 93 229 c 0
 79 215 71 217 66 222 c 0
EndSplineSet
EndChar

StartChar: slash
Encoding: 47 47 15
Width: 466
VWidth: 0
Flags: HMW
LayerCount: 2
Fore
SplineSet
351 206 m 0
 124 206 l 0
 124 136 l 0
 351 136 l 0
 351 206 l 0
308 262 m 0
 83 262 l 0
 123 217 l 0
 346 217 l 0
 308 262 l 0
344 125 m 0
 124 125 l 0
 80 82 l 0
 301 82 l 0
 344 125 l 0
113 131 m 0
 113 211 l 0
 65 261 l 0
 19 212 l 0
 19 131 l 0
 64 82 l 0
 113 131 l 0
405 202 m 0
 332 252 l 0
 364 214 l 0
 364 131 l 0
 325 90 l 0
 404 141 l 0
 445 168 443 175 405 202 c 0
47 157 m 0
 41 183 51 199 61 201 c 0
 68 203 76 201 81 181 c 0
 87 155 76 140 67 137 c 0
 60 136 52 138 47 157 c 0
432 144 m 0
 318 71 l 0
 64 71 l 0
 8 128 l 0
 8 216 l 0
 60 273 l 0
 322 273 l 0
 432 198 l 0
 454 186 455 157 432 144 c 0
EndSplineSet
EndChar

StartChar: zero
Encoding: 48 48 16
Width: 455
VWidth: 0
Flags: HMW
LayerCount: 2
Fore
SplineSet
351 162 m 0
 362 208 l 0
 158 92 l 0
 142 41 l 0
 351 162 l 0
324 284 m 0
 272 297 l 0
 60 175 l 0
 113 164 l 0
 324 284 l 0
127 33 m 0
 145 92 l 0
 106 155 l 0
 47 166 l 0
 27 98 l 0
 64 43 l 0
 127 33 l 0
335 277 m 0
 119 155 l 0
 152 102 l 0
 363 220 l 0
 335 277 l 0
363 179 m 0
 406 255 l 0
 426 291 418 304 379 304 c 0
 283 304 l 0
 344 288 l 0
 376 220 l 0
 363 179 l 0
433 276 m 0
 366 161 l 0
 132 24 l 0
 59 35 l 0
 18 98 l 0
 38 175 l 0
 278 315 l 0
 405 315 l 0
 436 315 446 297 433 276 c 0
77 77 m 0
 58 96 59 115 66 122 c 0
 71 127 79 129 93 115 c 0
 112 96 111 77 104 70 c 0
 99 65 91 63 77 77 c 0
EndSplineSet
EndChar

StartChar: one
Encoding: 49 49 17
Width: 472
VWidth: 0
Flags: HMW
LayerCount: 2
Fore
SplineSet
372 113 m 0
 315 70 266 56 244 77 c 0
 231 92 227 107 217 117 c 0
 202 132 184 133 171 120 c 0
 165 114 159 103 157 97 c 0
 72 97 l 0
 64 97 48 103 40 111 c 0
 9 142 9 202 40 233 c 0
 48 241 64 247 72 247 c 0
 157 247 l 0
 159 241 165 230 171 224 c 0
 184 211 202 212 217 227 c 0
 227 237 231 252 244 267 c 0
 266 288 315 274 373 231 c 0
 453 172 l 0
 372 113 l 0
265 208 m 0
 272 215 295 215 303 207 c 0
 310 201 313 191 314 182 c 0
 362 182 l 0
 362 222 l 0
 324 246 l 0
 285 268 262 264 252 254 c 0
 242 244 237 226 223 212 c 0
 204 194 180 194 163 211 c 0
 155 220 150 227 146 233 c 0
 79 233 l 0
 66 233 55 226 48 219 c 0
 28 199 28 145 48 125 c 0
 55 118 66 111 79 111 c 0
 146 111 l 0
 150 117 155 124 163 133 c 0
 180 150 204 150 223 132 c 0
 237 118 242 100 252 90 c 0
 262 80 285 76 324 98 c 0
 362 122 l 0
 362 162 l 0
 314 162 l 0
 313 153 310 143 303 137 c 0
 295 129 272 129 265 136 c 0
 250 154 250 193 265 208 c 0
EndSplineSet
EndChar

StartChar: two
Encoding: 50 50 18
Width: 487
VWidth: 0
Flags: HMW
LayerCount: 2
Fore
SplineSet
37 229 m 0
 47 239 68 240 76 240 c 0
 144 240 l 0
 188 240 182 214 195 202 c 0
 206 190 224 190 236 202 c 0
 250 216 252 258 273 279 c 0
 323 329 366 247 396 217 c 0
 417 196 445 179 469 172 c 0
 445 165 417 148 396 127 c 0
 366 97 323 15 273 65 c 0
 252 86 250 128 236 142 c 0
 224 154 206 154 195 142 c 0
 182 130 188 104 144 104 c 0
 76 104 l 0
 68 104 47 105 37 115 c 0
 10 142 10 202 37 229 c 0
283 145 m 0
 299 129 327 139 335 164 c 0
 365 164 l 0
 428 173 l 0
 365 180 l 0
 335 180 l 0
 327 205 299 215 283 199 c 0
 269 185 269 159 283 145 c 0
EndSplineSet
EndChar

StartChar: three
Encoding: 51 51 19
Width: 377
VWidth: 0
Flags: HMW
LayerCount: 2
Fore
SplineSet
85 -7 m 0
 47 -7 59 -7 25 78 c 0
 10 119 21 126 45 137 c 0
 73 146 74 149 88 115 c 0
 106 73 104 81 125 110 c 0
 162 161 237 285 270 318 c 0
 294 342 316 351 359 353 c 0
 363 345 l 0
 216 180 146 48 123 12 c 0
 114 -3 121 -7 85 -7 c 0
EndSplineSet
EndChar

StartChar: four
Encoding: 52 52 20
Width: 394
VWidth: 0
Flags: HMW
LayerCount: 2
Fore
SplineSet
157 260 m 0
 74 296 l 0
 110 213 l 0
 121 235 135 249 157 260 c 0
69 46 m 0
 -1 116 -1 230 69 300 c 0
 140 371 254 371 325 300 c 0
 395 230 395 116 325 46 c 0
 254 -25 140 -25 69 46 c 0
164 83 m 0
 197 -1 l 0
 230 83 l 0
 206 75 186 75 164 83 c 0
107 140 m 0
 99 162 99 182 107 206 c 0
 23 173 l 0
 107 140 l 0
287 140 m 0
 371 173 l 0
 287 206 l 0
 295 182 295 162 287 140 c 0
136 234 m 0
 103 201 103 145 136 112 c 0
 169 79 225 79 258 112 c 0
 291 145 291 201 258 234 c 0
 225 267 169 267 136 234 c 0
164 263 m 0
 186 271 206 271 230 263 c 0
 197 347 l 0
 164 263 l 0
237 260 m 0
 259 249 273 235 284 213 c 0
 320 296 l 0
 237 260 l 0
110 133 m 0
 75 51 l 0
 157 86 l 0
 135 97 121 111 110 133 c 0
237 86 m 0
 320 50 l 0
 284 133 l 0
 273 111 259 97 237 86 c 0
EndSplineSet
EndChar

StartChar: five
Encoding: 53 53 21
Width: 381
VWidth: 0
Flags: HMW
LayerCount: 2
Fore
SplineSet
18 317 m 0
 48 346 l 0
 191 203 l 0
 334 346 l 0
 364 317 l 0
 220 173 l 0
 364 29 l 0
 334 0 l 0
 191 143 l 0
 48 0 l 0
 18 29 l 0
 162 173 l 0
 18 317 l 0
EndSplineSet
EndChar

StartChar: six
Encoding: 54 54 22
Width: 380
VWidth: 0
Flags: HMW
LayerCount: 2
Fore
SplineSet
191 260 m 0
 277 346 l 0
 364 258 l 0
 279 172 l 0
 364 88 l 0
 277 0 l 0
 191 86 l 0
 105 0 l 0
 18 88 l 0
 103 174 l 0
 18 258 l 0
 105 346 l 0
 191 260 l 0
EndSplineSet
EndChar

StartChar: seven
Encoding: 55 55 23
Width: 285
VWidth: 0
Flags: HMW
LayerCount: 2
Fore
SplineSet
280 328 m 0
 274 318 292 320 280 304 c 0
 188 186 l 0
 241 76 l 0
 236 74 236 69 238 65 c 0
 231 60 221 55 228 45 c 0
 218 34 212 29 201 46 c 0
 148 128 l 0
 125 99 82 42 44 -27 c 0
 37 -38 22 -41 4 -18 c 0
 -7 -3 10 3 -1 17 c 0
 45 96 74 133 118 177 c 0
 76 287 l 0
 68 308 80 311 85 314 c 0
 96 304 107 311 111 319 c 0
 116 319 120 311 123 305 c 0
 162 235 l 0
 240 323 l 0
 250 335 255 329 263 322 c 0
 276 331 l 0
 280 328 l 0
EndSplineSet
EndChar

StartChar: eight
Encoding: 56 56 24
Width: 353
VWidth: 0
Flags: HMW
LayerCount: 2
Fore
SplineSet
196 162 m 0
 239 137 270 120 326 88 c 0
 343 150 273 149 196 162 c 0
196 184 m 0
 325 259 l 0
 281 305 246 244 196 184 c 0
177 195 m 0
 177 344 l 0
 114 329 149 268 177 195 c 0
158 184 m 0
 28 258 l 0
 11 196 81 197 158 184 c 0
177 151 m 0
 177 2 l 0
 240 17 204 78 177 151 c 0
158 162 m 0
 31 87 l 0
 74 41 109 102 158 162 c 0
198 173 m 0
 279 154 350 167 333 83 c 0
 269 27 245 95 188 155 c 0
 211 75 259 20 177 -7 c 0
 97 20 143 75 166 155 c 0
 110 94 86 26 22 82 c 0
 4 166 75 153 156 173 c 0
 75 192 4 178 21 262 c 0
 84 319 109 251 166 191 c 0
 143 271 96 326 177 353 c 0
 258 326 211 271 188 191 c 0
 245 252 269 320 333 263 c 0
 350 180 279 193 198 173 c 0
EndSplineSet
EndChar

StartChar: nine
Encoding: 57 57 25
Width: 381
VWidth: 0
Flags: HMW
LayerCount: 2
Fore
SplineSet
135 346 m 0
 247 346 l 0
 247 229 l 0
 364 229 l 0
 364 117 l 0
 247 117 l 0
 247 0 l 0
 135 0 l 0
 135 117 l 0
 18 117 l 0
 18 229 l 0
 135 229 l 0
 135 346 l 0
148 216 m 0
 32 216 l 0
 32 130 l 0
 148 130 l 0
 148 14 l 0
 234 14 l 0
 234 130 l 0
 350 130 l 0
 350 216 l 0
 234 216 l 0
 234 332 l 0
 148 332 l 0
 148 216 l 0
214 313 m 0
 214 197 l 0
 331 197 l 0
 331 149 l 0
 214 149 l 0
 214 32 l 0
 166 32 l 0
 166 149 l 0
 50 149 l 0
 50 197 l 0
 166 197 l 0
 166 313 l 0
 214 313 l 0
EndSplineSet
EndChar

StartChar: colon
Encoding: 58 58 26
Width: 380
VWidth: 0
Flags: HMW
LayerCount: 2
Fore
SplineSet
135 346 m 0
 246 346 l 0
 246 229 l 0
 363 229 l 0
 363 117 l 0
 246 117 l 0
 246 0 l 0
 135 0 l 0
 135 117 l 0
 18 117 l 0
 18 229 l 0
 135 229 l 0
 135 346 l 0
EndSplineSet
EndChar

StartChar: semicolon
Encoding: 59 59 27
Width: 379
VWidth: 0
Flags: HMW
LayerCount: 2
Fore
SplineSet
164 200 m 0
 164 346 l 0
 217 346 l 0
 217 200 l 0
 363 200 l 0
 363 147 l 0
 217 147 l 0
 217 0 l 0
 164 0 l 0
 164 147 l 0
 18 147 l 0
 18 200 l 0
 164 200 l 0
168 151 m 0
 213 151 l 0
 213 196 l 0
 168 196 l 0
 168 151 l 0
EndSplineSet
EndChar

StartChar: less
Encoding: 60 60 28
Width: 377
VWidth: 0
Flags: HMW
LayerCount: 2
Fore
SplineSet
139 121 m 0
 242 121 l 0
 242 225 l 0
 139 225 l 0
 139 121 l 0
246 346 m 0
 246 229 l 0
 361 229 l 0
 361 117 l 0
 246 117 l 0
 246 0 l 0
 135 0 l 0
 135 117 l 0
 19 117 l 0
 19 229 l 0
 135 229 l 0
 135 346 l 0
 246 346 l 0
EndSplineSet
EndChar

StartChar: equal
Encoding: 61 61 29
Width: 247
VWidth: 0
Flags: HMW
LayerCount: 2
Fore
SplineSet
146 0 m 0
 102 0 l 0
 102 210 l 0
 18 210 l 0
 18 253 l 0
 102 253 l 0
 102 346 l 0
 146 346 l 0
 146 253 l 0
 230 253 l 0
 230 210 l 0
 146 210 l 0
 146 0 l 0
EndSplineSet
EndChar

StartChar: greater
Encoding: 62 62 30
Width: 276
VWidth: 0
Flags: HMW
LayerCount: 2
Fore
SplineSet
151 334 m 0
 104 334 l 0
 104 259 l 0
 31 259 l 0
 31 211 l 0
 104 211 l 0
 104 37 l 0
 151 37 l 0
 151 211 l 0
 224 211 l 0
 224 259 l 0
 151 259 l 0
 151 334 l 0
189 307 m 0
 189 271 l 0
 226 271 l 0
 259 235 l 0
 259 175 l 0
 189 175 l 0
 189 0 l 0
 137 0 l 0
 91 35 l 0
 91 175 l 0
 66 175 l 0
 18 208 l 0
 18 271 l 0
 91 271 l 0
 91 346 l 0
 151 346 l 0
 189 307 l 0
EndSplineSet
EndChar

StartChar: question
Encoding: 63 63 31
Width: 268
VWidth: 0
Flags: HMW
LayerCount: 2
Fore
SplineSet
47 203 m 0
 47 240 l 0
 117 240 l 0
 117 317 l 0
 154 317 l 0
 154 240 l 0
 224 240 l 0
 224 203 l 0
 154 203 l 0
 154 29 l 0
 117 29 l 0
 117 203 l 0
 47 203 l 0
241 258 m 0
 172 258 l 0
 172 335 l 0
 99 335 l 0
 99 258 l 0
 30 258 l 0
 30 186 l 0
 99 186 l 0
 99 11 l 0
 172 11 l 0
 172 186 l 0
 241 186 l 0
 241 258 l 0
252 269 m 0
 252 174 l 0
 184 174 l 0
 184 0 l 0
 87 0 l 0
 87 174 l 0
 18 174 l 0
 18 269 l 0
 87 269 l 0
 87 346 l 0
 184 346 l 0
 184 269 l 0
 252 269 l 0
EndSplineSet
EndChar

StartChar: at
Encoding: 64 64 32
Width: 288
VWidth: 0
Flags: HMW
LayerCount: 2
Fore
SplineSet
56 289 m 0
 56 298 l 0
 232 298 l 0
 232 289 l 0
 191 289 151 249 152 181 c 0
 220 180 260 220 260 261 c 0
 270 261 l 0
 270 85 l 0
 260 85 l 0
 260 126 220 166 152 165 c 0
 151 97 191 57 232 57 c 0
 232 48 l 0
 56 48 l 0
 56 57 l 0
 97 57 137 97 136 165 c 0
 68 166 28 126 28 85 c 0
 18 85 l 0
 18 261 l 0
 28 261 l 0
 28 220 68 180 136 181 c 0
 137 249 97 289 56 289 c 0
EndSplineSet
EndChar

StartChar: A
Encoding: 65 65 33
Width: 346
VWidth: 0
Flags: HMW
LayerCount: 2
Fore
SplineSet
225 83 m 0
 174 -7 l 0
 122 83 l 0
 18 83 l 0
 70 172 l 0
 18 263 l 0
 122 263 l 0
 174 353 l 0
 225 263 l 0
 329 263 l 0
 277 172 l 0
 329 83 l 0
 225 83 l 0
140 263 m 0
 207 263 l 0
 173 321 l 0
 140 263 l 0
268 189 m 0
 301 247 l 0
 235 247 l 0
 268 189 l 0
235 99 m 0
 301 99 l 0
 268 157 l 0
 235 99 l 0
141 83 m 0
 173 25 l 0
 206 83 l 0
 141 83 l 0
79 156 m 0
 47 99 l 0
 112 99 l 0
 79 156 l 0
112 247 m 0
 47 247 l 0
 79 189 l 0
 112 247 l 0
90 172 m 0
 131 99 l 0
 216 99 l 0
 259 172 l 0
 217 247 l 0
 131 247 l 0
 90 172 l 0
EndSplineSet
EndChar

StartChar: B
Encoding: 66 66 34
Width: 393
VWidth: 0
Flags: HMW
LayerCount: 2
Fore
SplineSet
204 166 m 0
 215 82 252 35 223 5 c 0
 207 -11 187 -11 171 5 c 0
 142 35 179 82 190 166 c 0
 106 155 59 118 29 147 c 0
 13 163 13 183 29 199 c 0
 59 228 106 191 190 180 c 0
 179 264 142 311 171 341 c 0
 187 357 207 357 223 341 c 0
 252 311 215 264 204 180 c 0
 288 191 335 228 365 199 c 0
 381 183 381 163 365 147 c 0
 335 118 288 155 204 166 c 0
EndSplineSet
EndChar

StartChar: C
Encoding: 67 67 35
Width: 394
VWidth: 0
Flags: HMW
LayerCount: 2
Fore
SplineSet
164 178 m 0
 164 192 178 205 192 205 c 0
 192 227 l 0
 192 264 118 291 167 340 c 0
 184 357 214 357 231 340 c 0
 280 291 202 264 202 227 c 0
 202 205 l 0
 216 205 230 192 230 178 c 0
 252 178 l 0
 287 178 315 254 364 205 c 0
 381 188 381 158 364 141 c 0
 315 92 287 168 252 168 c 0
 230 168 l 0
 230 154 216 141 202 141 c 0
 202 119 l 0
 202 82 278 55 229 6 c 0
 212 -11 182 -11 165 6 c 0
 116 55 192 82 192 119 c 0
 192 141 l 0
 178 141 164 154 164 168 c 0
 142 168 l 0
 107 168 79 92 30 141 c 0
 13 158 13 188 30 205 c 0
 79 254 107 178 142 178 c 0
 164 178 l 0
EndSplineSet
EndChar

StartChar: D
Encoding: 68 68 36
Width: 394
VWidth: 0
Flags: HMW
LayerCount: 2
Fore
SplineSet
34 216 m 0
 97 279 149 175 188 182 c 0
 195 221 91 273 154 336 c 0
 177 359 217 359 240 336 c 0
 303 273 199 221 206 182 c 0
 245 175 297 279 360 216 c 0
 383 193 383 153 360 130 c 0
 297 67 245 171 206 164 c 0
 199 125 303 73 240 10 c 0
 217 -13 177 -13 154 10 c 0
 91 73 195 125 188 164 c 0
 149 171 97 67 34 130 c 0
 11 153 11 193 34 216 c 0
EndSplineSet
EndChar

StartChar: E
Encoding: 69 69 37
Width: 395
VWidth: 0
Flags: HMW
LayerCount: 2
Fore
SplineSet
278 180 m 0
 237 228 323 262 328 199 c 0
 341 205 354 210 368 196 c 0
 383 181 383 165 368 150 c 0
 354 136 341 141 328 147 c 0
 323 84 237 118 278 166 c 0
 206 164 l 0
 204 92 l 0
 252 133 286 47 223 42 c 0
 229 29 234 16 220 2 c 0
 205 -13 189 -13 174 2 c 0
 160 16 165 29 171 42 c 0
 108 47 142 133 190 92 c 0
 188 164 l 0
 116 166 l 0
 157 118 71 84 66 147 c 0
 53 141 40 136 26 150 c 0
 11 165 11 181 26 196 c 0
 40 210 53 205 66 199 c 0
 71 262 157 228 116 180 c 0
 188 182 l 0
 190 254 l 0
 142 213 108 299 171 304 c 0
 165 317 160 330 174 344 c 0
 189 359 205 359 220 344 c 0
 234 330 229 317 223 304 c 0
 286 299 252 213 204 254 c 0
 206 182 l 0
 278 180 l 0
EndSplineSet
EndChar

StartChar: F
Encoding: 70 70 38
Width: 396
VWidth: 0
Flags: HMW
LayerCount: 2
Fore
SplineSet
195 351 m 0
 196 352 197 353 198 353 c 0
 199 353 201 352 202 351 c 0
 205 348 205 344 206 340 c 0
 213 323 219 307 228 291 c 0
 249 254 281 222 319 202 c 0
 334 194 351 187 367 181 c 0
 370 180 375 180 378 177 c 0
 379 176 380 176 380 174 c 0
 380 172 379 171 378 170 c 0
 375 168 371 167 367 166 c 0
 351 159 334 153 319 144 c 0
 282 123 249 92 228 55 c 0
 219 39 213 23 206 6 c 0
 205 2 205 -2 202 -5 c 0
 201 -6 199 -7 198 -7 c 0
 197 -7 196 -6 195 -5 c 0
 192 -2 192 2 191 6 c 0
 185 23 178 39 170 55 c 0
 150 92 118 124 81 144 c 0
 66 152 49 159 33 165 c 0
 28 167 25 167 21 169 c 0
 19 170 18 171 18 173 c 0
 18 175 20 176 22 177 c 0
 26 179 30 180 33 181 c 0
 49 187 66 194 81 202 c 0
 118 222 150 254 170 291 c 0
 178 307 185 323 191 340 c 0
 192 344 192 348 195 351 c 0
EndSplineSet
EndChar

StartChar: G
Encoding: 71 71 39
Width: 397
VWidth: 0
Flags: HMW
LayerCount: 2
Fore
SplineSet
194 360 m 0
 204 360 l 0
 232 258 292 213 380 186 c 0
 380 174 l 0
 292 147 232 102 204 0 c 0
 194 0 l 0
 166 102 106 147 18 174 c 0
 18 186 l 0
 106 213 166 258 194 360 c 0
239 140 m 0
 265 155 304 170 358 180 c 0
 304 190 265 205 239 220 c 0
 224 247 209 286 199 340 c 0
 189 286 174 247 158 220 c 0
 131 204 92 189 38 180 c 0
 92 170 131 155 158 140 c 0
 174 113 189 74 199 20 c 0
 209 74 224 113 239 140 c 0
EndSplineSet
EndChar

StartChar: H
Encoding: 72 72 40
Width: 348
VWidth: 0
Flags: HMW
LayerCount: 2
Fore
SplineSet
163 14 m 0
 166 83 l 0
 100 44 l 0
 100 120 l 0
 50 88 l 0
 39 81 26 68 24 84 c 0
 9 95 25 98 37 105 c 0
 91 134 l 0
 24 173 l 0
 91 212 l 0
 37 241 l 0
 25 248 9 251 24 262 c 0
 26 278 39 265 50 258 c 0
 100 226 l 0
 100 302 l 0
 166 263 l 0
 163 332 l 0
 163 339 159 349 175 345 c 0
 191 349 186 339 186 331 c 0
 183 263 l 0
 249 302 l 0
 249 226 l 0
 299 258 l 0
 310 265 323 278 325 262 c 0
 340 251 324 248 312 241 c 0
 258 212 l 0
 325 173 l 0
 258 134 l 0
 312 105 l 0
 324 98 340 95 325 84 c 0
 323 68 310 81 299 88 c 0
 249 120 l 0
 249 44 l 0
 183 83 l 0
 186 15 l 0
 186 7 191 -3 175 1 c 0
 159 -3 163 7 163 14 c 0
240 58 m 0
 240 125 l 0
 183 159 l 0
 183 93 l 0
 240 58 l 0
109 58 m 0
 166 93 l 0
 166 159 l 0
 109 125 l 0
 109 58 l 0
100 139 m 0
 157 173 l 0
 100 207 l 0
 41 173 l 0
 100 139 l 0
192 173 m 0
 249 139 l 0
 308 173 l 0
 249 207 l 0
 192 173 l 0
240 288 m 0
 183 253 l 0
 183 187 l 0
 240 221 l 0
 240 288 l 0
109 288 m 0
 109 221 l 0
 166 187 l 0
 166 253 l 0
 109 288 l 0
EndSplineSet
EndChar

StartChar: I
Encoding: 73 73 41
Width: 411
VWidth: 0
Flags: HMW
LayerCount: 2
Fore
SplineSet
206 95 m 0
 314 5 l 0
 266 136 l 0
 379 215 l 0
 241 205 l 0
 206 330 l 0
 171 205 l 0
 33 215 l 0
 146 136 l 0
 98 5 l 0
 206 95 l 0
206 66 m 0
 89 -7 l 0
 121 127 l 0
 18 220 l 0
 157 229 l 0
 206 353 l 0
 255 229 l 0
 394 220 l 0
 291 127 l 0
 323 -7 l 0
 206 66 l 0
EndSplineSet
EndChar

StartChar: J
Encoding: 74 74 42
Width: 394
VWidth: 0
Flags: HMW
LayerCount: 2
Fore
SplineSet
70 300 m 0
 141 371 255 371 326 300 c 0
 396 230 396 116 326 46 c 0
 255 -25 141 -25 70 46 c 0
 0 116 0 230 70 300 c 0
160 229 m 0
 41 229 l 0
 136 151 l 0
 99 39 l 0
 198 106 l 0
 298 39 l 0
 261 151 l 0
 356 229 l 0
 237 229 l 0
 198 341 l 0
 160 229 l 0
EndSplineSet
EndChar

StartChar: K
Encoding: 75 75 43
Width: 420
VWidth: 0
Flags: HMW
LayerCount: 2
Fore
SplineSet
157 213 m 0
 203 359 l 0
 248 213 l 0
 398 213 l 0
 275 127 l 0
 315 -1 l 0
 203 78 l 0
 90 -1 l 0
 131 129 l 0
 12 213 l 0
 157 213 l 0
160 110 m 0
 185 85 220 85 245 110 c 0
 269 134 269 170 245 194 c 0
 220 219 185 219 160 194 c 0
 136 170 136 134 160 110 c 0
EndSplineSet
EndChar

StartChar: L
Encoding: 76 76 44
Width: 411
VWidth: 0
Flags: HMW
LayerCount: 2
Fore
SplineSet
168 203 m 0
 190 225 222 225 244 203 c 0
 266 181 266 149 244 127 c 0
 222 105 190 105 168 127 c 0
 146 149 146 181 168 203 c 0
158 236 m 0
 206 353 l 0
 254 236 l 0
 395 228 l 0
 286 138 l 0
 329 -7 l 0
 206 78 l 0
 83 -7 l 0
 126 138 l 0
 18 228 l 0
 158 236 l 0
34 222 m 0
 154 149 l 0
 95 10 l 0
 206 111 l 0
 317 9 l 0
 258 148 l 0
 378 222 l 0
 237 210 l 0
 206 335 l 0
 175 210 l 0
 34 222 l 0
EndSplineSet
EndChar

StartChar: M
Encoding: 77 77 45
Width: 416
VWidth: 0
Flags: HMW
LayerCount: 2
Fore
SplineSet
155 216 m 0
 208 353 l 0
 262 216 l 0
 399 216 l 0
 291 127 l 0
 331 -7 l 0
 208 73 l 0
 86 -7 l 0
 125 127 l 0
 18 216 l 0
 155 216 l 0
165 200 m 0
 59 200 l 0
 140 133 l 0
 107 21 l 0
 208 89 l 0
 309 21 l 0
 277 133 l 0
 357 200 l 0
 252 200 l 0
 208 318 l 0
 165 200 l 0
174 184 m 0
 208 283 l 0
 242 184 l 0
 316 184 l 0
 262 140 l 0
 286 54 l 0
 208 105 l 0
 131 54 l 0
 155 140 l 0
 101 184 l 0
 174 184 l 0
EndSplineSet
EndChar

StartChar: N
Encoding: 78 78 46
Width: 408
VWidth: 0
Flags: HMW
LayerCount: 2
Fore
SplineSet
88 -5 m 0
 120 132 l 0
 18 213 l 0
 153 226 l 0
 205 351 l 0
 256 226 l 0
 390 212 l 0
 289 132 l 0
 322 -6 l 0
 204 70 l 0
 88 -5 l 0
204 291 m 0
 169 204 l 0
 76 197 l 0
 148 140 l 0
 123 45 l 0
 204 100 l 0
 286 45 l 0
 261 140 l 0
 333 197 l 0
 240 204 l 0
 204 291 l 0
204 237 m 0
 226 182 l 0
 278 182 l 0
 237 147 l 0
 255 91 l 0
 204 125 l 0
 154 91 l 0
 172 147 l 0
 131 182 l 0
 183 182 l 0
 204 237 l 0
EndSplineSet
EndChar

StartChar: O
Encoding: 79 79 47
Width: 415
VWidth: 0
Flags: HMW
LayerCount: 2
Fore
SplineSet
158 216 m 0
 208 353 l 0
 258 216 l 0
 398 216 l 0
 286 132 l 0
 335 -7 l 0
 208 82 l 0
 81 -7 l 0
 130 132 l 0
 18 216 l 0
 158 216 l 0
208 93 m 0
 208 158 l 0
 101 19 l 0
 208 93 l 0
274 136 m 0
 208 158 l 0
 315 19 l 0
 274 136 l 0
370 207 m 0
 252 207 l 0
 208 158 l 0
 370 207 l 0
164 207 m 0
 208 158 l 0
 208 329 l 0
 164 207 l 0
142 136 m 0
 208 158 l 0
 46 207 l 0
 142 136 l 0
EndSplineSet
EndChar

StartChar: P
Encoding: 80 80 48
Width: 461
VWidth: 0
Flags: HMW
LayerCount: 2
Fore
SplineSet
159 221 m 0
 203 353 l 0
 251 347 l 0
 293 221 l 0
 399 221 l 0
 444 211 l 0
 326 123 l 0
 368 -3 l 0
 315 0 l 0
 236 57 l 0
 149 -7 l 0
 86 8 l 0
 128 135 l 0
 18 221 l 0
 159 221 l 0
308 18 m 0
 266 141 l 0
 360 211 l 0
 242 211 l 0
 203 328 l 0
 165 211 l 0
 47 211 l 0
 141 141 l 0
 99 18 l 0
 203 93 l 0
 308 18 l 0
EndSplineSet
EndChar

StartChar: Q
Encoding: 81 81 49
Width: 372
VWidth: 0
Flags: HMW
LayerCount: 2
Fore
SplineSet
224 346 m 0
 220 229 l 0
 317 293 l 0
 355 230 l 0
 253 173 l 0
 355 116 l 0
 317 53 l 0
 220 117 l 0
 224 0 l 0
 149 0 l 0
 153 117 l 0
 56 53 l 0
 18 116 l 0
 120 173 l 0
 18 230 l 0
 56 293 l 0
 153 229 l 0
 149 346 l 0
 224 346 l 0
EndSplineSet
EndChar

StartChar: R
Encoding: 82 82 50
Width: 361
VWidth: 0
Flags: HMW
LayerCount: 2
Fore
SplineSet
317 286 m 0
 344 242 l 0
 240 178 l 0
 215 221 l 0
 317 286 l 0
317 60 m 0
 215 125 l 0
 240 168 l 0
 344 104 l 0
 317 60 l 0
155 0 m 0
 155 119 l 0
 207 119 l 0
 207 0 l 0
 155 0 l 0
45 60 m 0
 18 104 l 0
 122 168 l 0
 147 125 l 0
 45 60 l 0
45 286 m 0
 147 221 l 0
 122 178 l 0
 18 242 l 0
 45 286 l 0
155 346 m 0
 207 346 l 0
 207 227 l 0
 155 227 l 0
 155 346 l 0
EndSplineSet
EndChar

StartChar: S
Encoding: 83 83 51
Width: 374
VWidth: 0
Flags: HMW
LayerCount: 2
Fore
SplineSet
182 187 m 0
 179 346 l 0
 196 346 l 0
 193 187 l 0
 302 302 l 0
 314 289 l 0
 201 179 l 0
 357 182 l 0
 357 164 l 0
 201 167 l 0
 314 57 l 0
 302 44 l 0
 193 159 l 0
 196 0 l 0
 179 0 l 0
 182 159 l 0
 73 44 l 0
 61 57 l 0
 174 167 l 0
 18 164 l 0
 18 182 l 0
 174 179 l 0
 61 289 l 0
 73 302 l 0
 182 187 l 0
EndSplineSet
EndChar

StartChar: T
Encoding: 84 84 52
Width: 395
VWidth: 0
Flags: HMW
LayerCount: 2
Fore
SplineSet
322 292 m 0
 232 187 l 0
 370 177 l 0
 372 177 375 177 376 176 c 0
 377 175 377 171 376 170 c 0
 375 169 372 169 370 169 c 0
 232 158 l 0
 322 55 l 0
 324 53 326 52 326 50 c 0
 326 48 323 45 321 45 c 0
 319 45 318 47 316 49 c 0
 212 137 l 0
 201 0 l 0
 201 -2 201 -5 200 -6 c 0
 198 -7 195 -7 193 -6 c 0
 192 -5 192 -2 192 0 c 0
 182 137 l 0
 77 48 l 0
 75 46 74 45 72 45 c 0
 70 45 67 47 67 49 c 0
 67 51 69 52 71 54 c 0
 161 158 l 0
 23 169 l 0
 21 169 18 169 17 170 c 0
 16 171 16 175 17 176 c 0
 18 177 21 177 23 177 c 0
 161 187 l 0
 71 292 l 0
 69 294 67 295 67 297 c 0
 67 299 70 301 72 301 c 0
 74 301 75 300 77 298 c 0
 182 208 l 0
 192 346 l 0
 192 348 192 351 193 352 c 0
 195 353 198 353 200 352 c 0
 201 351 201 348 201 346 c 0
 212 208 l 0
 316 298 l 0
 318 300 319 301 321 301 c 0
 323 301 326 299 326 297 c 0
 326 295 324 294 322 292 c 0
EndSplineSet
EndChar

StartChar: U
Encoding: 85 85 53
Width: 396
VWidth: 0
Flags: HMW
LayerCount: 2
Fore
SplineSet
72 302 m 0
 170 240 l 0
 195 353 l 0
 201 353 l 0
 226 240 l 0
 323 302 l 0
 328 298 l 0
 266 200 l 0
 379 176 l 0
 379 170 l 0
 265 145 l 0
 328 48 l 0
 323 44 l 0
 226 106 l 0
 201 -7 l 0
 195 -7 l 0
 170 106 l 0
 72 43 l 0
 68 48 l 0
 131 145 l 0
 18 170 l 0
 18 176 l 0
 130 200 l 0
 67 298 l 0
 72 302 l 0
198 182 m 0
 198 333 l 0
 175 229 l 0
 198 182 l 0
205 179 m 0
 312 286 l 0
 223 229 l 0
 205 179 l 0
84 59 m 0
 174 117 l 0
 191 166 l 0
 84 59 l 0
143 150 m 0
 190 173 l 0
 38 173 l 0
 143 150 l 0
191 179 m 0
 83 286 l 0
 141 197 l 0
 191 179 l 0
198 13 m 0
 221 117 l 0
 198 164 l 0
 198 13 l 0
207 173 m 0
 359 173 l 0
 255 196 l 0
 207 173 l 0
205 166 m 0
 313 59 l 0
 255 148 l 0
 205 166 l 0
EndSplineSet
EndChar

StartChar: V
Encoding: 86 86 54
Width: 347
VWidth: 0
Flags: HMW
LayerCount: 2
Fore
SplineSet
177 -6 m 0
 171 -6 l 0
 146 126 l 0
 21 79 l 0
 17 85 l 0
 118 173 l 0
 18 262 l 0
 21 267 l 0
 146 220 l 0
 171 352 l 0
 177 352 l 0
 202 220 l 0
 327 267 l 0
 330 261 l 0
 230 173 l 0
 330 85 l 0
 326 79 l 0
 202 126 l 0
 177 -6 l 0
EndSplineSet
EndChar

StartChar: W
Encoding: 87 87 55
Width: 388
VWidth: 0
Flags: HMW
LayerCount: 2
Fore
SplineSet
119 349 m 0
 127 352 l 0
 195 248 l 0
 262 352 l 0
 270 349 l 0
 247 228 l 0
 369 253 l 0
 372 245 l 0
 268 173 l 0
 372 103 l 0
 369 95 l 0
 247 119 l 0
 269 -2 l 0
 263 -4 l 0
 195 99 l 0
 127 -4 l 0
 119 -1 l 0
 142 119 l 0
 21 95 l 0
 18 103 l 0
 121 173 l 0
 18 244 l 0
 21 252 l 0
 142 228 l 0
 119 349 l 0
EndSplineSet
EndChar

StartChar: X
Encoding: 88 88 56
Width: 384
VWidth: 0
Flags: HMW
LayerCount: 2
Fore
SplineSet
120 -4 m 0
 127 107 l 0
 18 98 l 0
 102 173 l 0
 18 248 l 0
 127 239 l 0
 120 350 l 0
 193 265 l 0
 265 350 l 0
 258 239 l 0
 367 248 l 0
 283 173 l 0
 367 98 l 0
 258 107 l 0
 265 -4 l 0
 193 81 l 0
 120 -4 l 0
EndSplineSet
EndChar

StartChar: Y
Encoding: 89 89 57
Width: 396
VWidth: 0
Flags: HMW
LayerCount: 2
Fore
SplineSet
176 269 m 0
 198 353 l 0
 221 269 l 0
 283 333 l 0
 269 243 l 0
 359 258 l 0
 295 195 l 0
 379 173 l 0
 295 151 l 0
 359 88 l 0
 269 103 l 0
 283 13 l 0
 221 77 l 0
 198 -7 l 0
 176 77 l 0
 114 13 l 0
 128 103 l 0
 38 88 l 0
 102 151 l 0
 18 173 l 0
 102 195 l 0
 38 258 l 0
 128 243 l 0
 114 333 l 0
 176 269 l 0
EndSplineSet
EndChar

StartChar: Z
Encoding: 90 90 58
Width: 379
VWidth: 0
Flags: HMW
LayerCount: 2
Fore
SplineSet
183 211 m 0
 181 346 l 0
 200 346 l 0
 198 211 l 0
 247 336 l 0
 264 329 l 0
 210 206 l 0
 304 302 l 0
 319 288 l 0
 222 194 l 0
 347 249 l 0
 354 231 l 0
 227 181 l 0
 363 183 l 0
 363 163 l 0
 227 165 l 0
 354 115 l 0
 347 97 l 0
 222 152 l 0
 319 58 l 0
 304 44 l 0
 210 140 l 0
 264 17 l 0
 247 10 l 0
 198 135 l 0
 200 0 l 0
 181 0 l 0
 183 135 l 0
 134 10 l 0
 117 17 l 0
 171 140 l 0
 77 44 l 0
 62 58 l 0
 159 152 l 0
 34 97 l 0
 27 115 l 0
 154 165 l 0
 18 163 l 0
 18 183 l 0
 154 181 l 0
 27 231 l 0
 34 249 l 0
 159 194 l 0
 62 288 l 0
 77 302 l 0
 171 206 l 0
 117 329 l 0
 134 336 l 0
 183 211 l 0
EndSplineSet
EndChar

StartChar: bracketleft
Encoding: 91 91 59
Width: 353
VWidth: 0
Flags: HMW
LayerCount: 2
Fore
SplineSet
177 228 m 0
 149 303 144 332 156 344 c 0
 168 356 187 355 198 344 c 0
 210 332 205 303 177 228 c 0
198 2 m 0
 187 -9 168 -10 156 2 c 0
 144 14 149 43 177 118 c 0
 205 43 210 14 198 2 c 0
130 198 m 0
 79 210 41 218 25 234 c 0
 15 244 15 259 25 269 c 0
 49 293 80 262 130 198 c 0
130 148 m 0
 80 84 49 53 25 77 c 0
 15 87 15 102 25 112 c 0
 41 128 79 136 130 148 c 0
224 198 m 0
 274 262 305 293 329 269 c 0
 339 259 339 244 329 234 c 0
 313 218 275 210 224 198 c 0
224 148 m 0
 275 136 313 128 329 112 c 0
 339 102 339 87 329 77 c 0
 305 53 274 84 224 148 c 0
149 202 m 0
 164 217 190 217 205 202 c 0
 221 186 221 160 205 144 c 0
 190 129 164 129 149 144 c 0
 133 160 133 186 149 202 c 0
EndSplineSet
EndChar

StartChar: backslash
Encoding: 92 92 60
Width: 354
VWidth: 0
Flags: HMW
LayerCount: 2
Fore
SplineSet
152 199 m 0
 137 184 137 162 152 147 c 0
 166 133 188 133 202 147 c 0
 217 162 217 184 202 199 c 0
 188 213 166 213 152 199 c 0
121 173 m 0
 119 184 131 194 108 201 c 0
 83 208 42 217 27 232 c 0
 15 244 15 261 24 270 c 0
 48 294 79 270 120 220 c 0
 136 201 137 218 149 223 c 0
 157 232 175 223 166 247 c 0
 151 289 140 328 156 344 c 0
 168 356 186 356 198 344 c 0
 214 328 203 289 188 247 c 0
 179 223 197 232 205 223 c 0
 217 218 218 201 234 220 c 0
 275 270 306 294 330 270 c 0
 339 261 339 244 327 232 c 0
 312 217 271 208 246 201 c 0
 223 194 235 184 233 173 c 0
 235 162 223 151 246 145 c 0
 271 138 312 129 327 114 c 0
 339 102 339 85 330 76 c 0
 306 52 275 76 234 126 c 0
 218 145 217 128 205 123 c 0
 197 114 179 123 188 99 c 0
 203 57 214 18 198 2 c 0
 186 -10 168 -10 156 2 c 0
 140 18 151 57 166 99 c 0
 175 123 157 114 149 123 c 0
 137 128 136 145 120 126 c 0
 79 76 48 52 24 76 c 0
 15 85 15 102 27 114 c 0
 42 129 83 138 108 145 c 0
 131 151 119 162 121 173 c 0
EndSplineSet
EndChar

StartChar: bracketright
Encoding: 93 93 61
Width: 344
VWidth: 0
Flags: HMW
LayerCount: 2
Fore
SplineSet
179 246 m 0
 179 183 l 0
 233 217 l 0
 257 295 l 0
 283 290 l 0
 268 239 l 0
 317 271 l 0
 325 259 l 0
 275 228 l 0
 328 219 l 0
 320 194 l 0
 239 206 l 0
 185 173 l 0
 239 140 l 0
 320 152 l 0
 328 127 l 0
 275 118 l 0
 325 87 l 0
 317 75 l 0
 268 107 l 0
 283 56 l 0
 257 51 l 0
 233 129 l 0
 179 163 l 0
 179 100 l 0
 233 38 l 0
 215 18 l 0
 179 58 l 0
 180 0 l 0
 166 0 l 0
 167 58 l 0
 131 18 l 0
 113 38 l 0
 167 100 l 0
 167 163 l 0
 113 129 l 0
 89 51 l 0
 63 56 l 0
 78 107 l 0
 29 75 l 0
 21 87 l 0
 71 118 l 0
 18 127 l 0
 26 152 l 0
 107 140 l 0
 161 173 l 0
 107 206 l 0
 26 194 l 0
 18 219 l 0
 71 228 l 0
 21 259 l 0
 29 271 l 0
 78 239 l 0
 63 290 l 0
 89 295 l 0
 113 217 l 0
 167 183 l 0
 167 246 l 0
 113 308 l 0
 131 328 l 0
 167 288 l 0
 166 346 l 0
 180 346 l 0
 179 288 l 0
 215 328 l 0
 233 308 l 0
 179 246 l 0
EndSplineSet
EndChar

StartChar: asciicircum
Encoding: 94 94 62
Width: 350
VWidth: 0
Flags: HMW
LayerCount: 2
Fore
SplineSet
178 162 m 0
 193 162 193 184 178 184 c 0
 163 184 163 162 178 162 c 0
211 279 m 0
 215 297 217 323 178 343 c 0
 139 323 141 297 145 279 c 0
 149 262 160 227 171 200 c 0
 184 200 l 0
 196 227 207 262 211 279 c 0
199 154 m 0
 269 58 290 66 325 83 c 0
 326 119 329 143 206 164 c 0
 199 154 l 0
149 164 m 0
 26 143 29 119 30 83 c 0
 65 66 86 58 156 154 c 0
 149 164 l 0
178 353 m 0
 227 332 232 302 224 278 c 0
 217 259 204 229 192 197 c 0
 212 221 230 250 244 267 c 0
 267 295 298 290 334 268 c 0
 339 233 331 196 294 189 c 0
 269 184 239 179 208 173 c 0
 239 167 269 162 294 157 c 0
 331 150 339 113 334 78 c 0
 298 56 267 51 244 79 c 0
 230 96 212 125 192 149 c 0
 204 117 217 87 224 68 c 0
 232 44 227 14 178 -7 c 0
 129 14 123 44 131 68 c 0
 138 87 151 117 163 149 c 0
 143 125 125 96 111 79 c 0
 88 51 57 56 21 78 c 0
 16 113 24 150 61 157 c 0
 86 162 116 167 147 173 c 0
 116 179 86 184 61 189 c 0
 24 196 16 233 21 268 c 0
 57 290 88 295 111 267 c 0
 125 250 143 221 163 197 c 0
 151 229 138 259 131 278 c 0
 123 302 129 332 178 353 c 0
EndSplineSet
EndChar

StartChar: underscore
Encoding: 95 95 63
Width: 413
VWidth: 0
Flags: HMW
LayerCount: 2
Fore
SplineSet
164 203 m 0
 141 180 141 142 164 119 c 0
 188 95 226 95 250 119 c 0
 273 142 273 180 250 203 c 0
 226 227 188 227 164 203 c 0
39 249 m 0
 78 288 133 262 156 226 c 0
 160 219 170 226 163 233 c 0
 141 257 123 297 161 335 c 0
 185 359 229 359 252 336 c 0
 291 297 272 258 252 231 c 0
 248 225 255 218 260 225 c 0
 283 261 336 288 375 249 c 0
 403 221 403 181 376 154 c 0
 350 128 316 133 286 142 c 0
 276 144 277 133 282 133 c 0
 296 133 312 128 329 111 c 0
 357 83 358 39 332 13 c 0
 306 -13 264 -15 235 14 c 0
 215 34 206 53 212 78 c 0
 213 89 201 89 202 78 c 0
 208 53 199 34 179 14 c 0
 150 -15 108 -13 82 13 c 0
 56 39 57 83 85 111 c 0
 102 128 118 133 132 133 c 0
 137 133 138 146 128 142 c 0
 98 133 64 128 38 154 c 0
 11 181 11 221 39 249 c 0
EndSplineSet
EndChar

StartChar: grave
Encoding: 96 96 64
Width: 407
VWidth: 0
Flags: HMW
LayerCount: 2
Fore
SplineSet
211 252 m 0
 214 217 l 0
 233 211 l 0
 259 243 259 289 237 311 c 0
 218 330 190 330 171 311 c 0
 149 289 149 243 175 211 c 0
 194 217 l 0
 197 252 l 0
 199 277 209 277 211 252 c 0
287 195 m 0
 314 201 316 192 290 182 c 0
 258 169 l 0
 257 150 l 0
 286 138 322 138 348 164 c 0
 367 183 366 211 350 227 c 0
 327 250 274 250 241 204 c 0
 252 188 l 0
 287 195 l 0
167 204 m 0
 134 250 81 250 58 227 c 0
 42 211 41 183 60 164 c 0
 86 138 122 138 151 150 c 0
 150 169 l 0
 118 182 l 0
 92 192 94 201 121 195 c 0
 156 188 l 0
 167 204 l 0
204 80 m 0
 197 56 196 35 174 13 c 0
 146 -15 110 -13 81 16 c 0
 60 37 57 74 91 108 c 0
 104 121 118 127 131 136 c 0
 95 131 56 135 31 160 c 0
 11 180 13 221 37 245 c 0
 63 271 111 266 157 226 c 0
 138 266 133 310 160 337 c 0
 182 359 226 359 248 337 c 0
 275 310 270 266 251 226 c 0
 297 266 345 271 371 245 c 0
 395 221 397 180 377 160 c 0
 352 135 313 131 277 136 c 0
 290 127 304 121 317 108 c 0
 351 74 348 37 327 16 c 0
 298 -13 262 -15 234 13 c 0
 212 35 211 56 204 80 c 0
262 92 m 0
 277 70 265 64 249 83 c 0
 227 109 l 0
 208 104 l 0
 209 80 216 54 232 38 c 0
 255 15 286 15 305 34 c 0
 324 53 323 88 294 117 c 0
 283 128 269 131 253 137 c 0
 243 121 l 0
 262 92 l 0
159 83 m 0
 143 64 131 70 146 92 c 0
 165 121 l 0
 155 137 l 0
 139 131 125 128 114 117 c 0
 85 88 84 53 103 34 c 0
 122 15 153 15 176 38 c 0
 192 54 199 80 200 104 c 0
 181 109 l 0
 159 83 l 0
EndSplineSet
EndChar

StartChar: a
Encoding: 97 97 65
Width: 359
VWidth: 0
Flags: HMW
LayerCount: 2
Fore
SplineSet
216 215 m 0
 225 238 l 0
 192 243 166 243 133 238 c 0
 142 215 l 0
 170 218 188 218 216 215 c 0
343 205 m 0
 336 183 321 189 303 190 c 0
 287 190 266 186 262 205 c 0
 289 201 318 201 343 205 c 0
15 205 m 0
 40 201 69 201 96 205 c 0
 92 186 71 190 55 190 c 0
 37 189 22 183 15 205 c 0
327 253 m 0
 341 239 339 224 339 213 c 0
 301 207 285 211 261 216 c 0
 257 225 247 233 236 235 c 0
 220 210 247 200 257 175 c 0
 285 103 l 0
 284 74 l 0
 282 70 l 0
 76 70 l 0
 74 74 l 0
 73 103 l 0
 101 175 l 0
 111 200 138 210 122 235 c 0
 138 210 111 200 101 175 c 0
 111 200 138 210 122 235 c 0
 138 210 111 200 101 175 c 0
 111 200 138 210 122 235 c 0
 111 233 101 225 97 216 c 0
 73 211 57 207 19 213 c 0
 19 224 17 239 31 253 c 0
 60 282 145 283 179 283 c 0
 213 283 298 282 327 253 c 0
215 189 m 0
 195 209 163 209 143 189 c 0
 123 169 123 137 143 117 c 0
 163 97 195 97 215 117 c 0
 235 137 235 169 215 189 c 0
EndSplineSet
EndChar

StartChar: b
Encoding: 98 98 66
Width: 423
VWidth: 0
Flags: HMW
LayerCount: 2
Fore
SplineSet
394 272 m 0
 335 217 242 109 141 23 c 0
 98 -17 91 -14 56 12 c 0
 21 38 29 40 22 94 c 0
 20 105 20 134 19 150 c 0
 18 187 13 184 41 213 c 0
 52 224 58 235 80 235 c 0
 113 235 108 217 109 196 c 0
 115 118 133 112 160 138 c 0
 233 207 293 266 373 344 c 0
 383 355 406 360 406 339 c 0
 406 281 410 287 394 272 c 0
EndSplineSet
EndChar

StartChar: c
Encoding: 99 99 67
Width: 338
VWidth: 0
Flags: HMW
LayerCount: 2
Fore
SplineSet
64 317 m 0
 66 311 81 302 81 317 c 0
 82 333 92 339 105 320 c 0
 123 295 144 263 162 231 c 0
 276 353 l 0
 309 339 287 330 295 325 c 0
 309 315 309 332 321 306 c 0
 205 171 l 0
 235 135 252 114 279 80 c 0
 261 34 261 62 253 52 c 0
 247 45 263 45 247 33 c 0
 228 18 234 52 215 29 c 0
 209 22 201 18 198 22 c 0
 182 49 164 69 142 96 c 0
 72 -5 l 0
 65 -7 l 0
 52 6 l 0
 55 17 l 0
 38 3 40 13 30 22 c 0
 0 50 48 35 18 63 c 0
 42 94 77 140 105 166 c 0
 80 209 62 245 45 298 c 0
 49 306 57 313 64 317 c 0
EndSplineSet
EndChar

StartChar: d
Encoding: 100 100 68
Width: 343
VWidth: 0
Flags: HMW
LayerCount: 2
Fore
SplineSet
94 230 m 0
 164 187 l 0
 164 269 l 0
 112 301 l 0
 117 315 l 0
 164 287 l 0
 163 346 l 0
 182 346 l 0
 181 287 l 0
 227 315 l 0
 232 301 l 0
 181 269 l 0
 181 187 l 0
 251 230 l 0
 251 291 l 0
 266 294 l 0
 266 240 l 0
 316 272 l 0
 326 256 l 0
 275 226 l 0
 324 202 l 0
 315 190 l 0
 260 217 l 0
 189 173 l 0
 260 129 l 0
 315 156 l 0
 324 144 l 0
 275 120 l 0
 326 90 l 0
 316 74 l 0
 266 106 l 0
 266 52 l 0
 251 55 l 0
 251 116 l 0
 181 159 l 0
 181 77 l 0
 232 45 l 0
 227 31 l 0
 181 59 l 0
 182 0 l 0
 163 0 l 0
 164 59 l 0
 117 31 l 0
 112 45 l 0
 164 77 l 0
 164 159 l 0
 94 116 l 0
 94 55 l 0
 79 52 l 0
 79 106 l 0
 28 74 l 0
 18 90 l 0
 70 120 l 0
 20 144 l 0
 30 156 l 0
 85 129 l 0
 156 173 l 0
 85 217 l 0
 30 190 l 0
 20 202 l 0
 70 226 l 0
 18 256 l 0
 28 272 l 0
 79 240 l 0
 79 294 l 0
 94 291 l 0
 94 230 l 0
EndSplineSet
EndChar

StartChar: e
Encoding: 101 101 69
Width: 408
VWidth: 0
Flags: HMW
LayerCount: 2
Fore
SplineSet
249 216 m 0
 392 216 l 0
 276 130 l 0
 320 -7 l 0
 205 78 l 0
 91 -7 l 0
 135 130 l 0
 19 216 l 0
 162 216 l 0
 205 353 l 0
 249 216 l 0
EndSplineSet
EndChar

StartChar: f
Encoding: 102 102 70
Width: 341
VWidth: 0
Flags: HMW
LayerCount: 2
Fore
SplineSet
201 274 m 0
 192 246 174 238 177 185 c 0
 226 212 219 235 247 263 c 0
 270 286 294 291 321 269 c 0
 323 253 326 236 311 221 c 0
 273 183 229 211 184 173 c 0
 229 135 273 163 311 125 c 0
 326 110 323 93 321 77 c 0
 294 55 270 60 247 83 c 0
 219 111 226 134 177 161 c 0
 174 108 192 100 201 72 c 0
 211 41 212 7 170 -7 c 0
 128 7 129 41 139 72 c 0
 148 100 166 108 163 161 c 0
 114 134 121 111 93 83 c 0
 70 60 46 55 19 77 c 0
 17 93 14 110 29 125 c 0
 67 163 111 135 156 173 c 0
 111 211 67 183 29 221 c 0
 14 236 17 253 19 269 c 0
 46 291 70 286 93 263 c 0
 121 235 114 212 163 185 c 0
 166 238 148 246 139 274 c 0
 129 305 128 339 170 353 c 0
 212 339 211 305 201 274 c 0
EndSplineSet
EndChar

StartChar: g
Encoding: 103 103 71
Width: 381
VWidth: 0
Flags: HMW
LayerCount: 2
Fore
SplineSet
18 0 m 0
 18 291 l 0
 73 291 l 0
 73 346 l 0
 363 346 l 0
 363 55 l 0
 309 55 l 0
 309 0 l 0
 18 0 l 0
33 15 m 0
 294 15 l 0
 294 276 l 0
 33 276 l 0
 33 15 l 0
EndSplineSet
EndChar

StartChar: h
Encoding: 104 104 72
Width: 379
VWidth: 0
Flags: HMW
LayerCount: 2
Fore
SplineSet
18 346 m 0
 299 346 l 0
 363 276 l 0
 363 0 l 0
 88 0 l 0
 18 65 l 0
 18 346 l 0
33 331 m 0
 33 70 l 0
 294 70 l 0
 294 331 l 0
 33 331 l 0
EndSplineSet
EndChar

StartChar: i
Encoding: 105 105 73
Width: 379
VWidth: 0
Flags: HMW
LayerCount: 2
Fore
SplineSet
33 15 m 0
 294 15 l 0
 294 276 l 0
 33 276 l 0
 33 15 l 0
18 0 m 0
 18 281 l 0
 88 346 l 0
 363 346 l 0
 363 70 l 0
 299 0 l 0
 18 0 l 0
EndSplineSet
EndChar

StartChar: j
Encoding: 106 106 74
Width: 394
VWidth: 0
Flags: HMW
LayerCount: 2
Fore
SplineSet
198 -7 m 0
 18 173 l 0
 198 353 l 0
 378 173 l 0
 198 -7 l 0
EndSplineSet
EndChar

StartChar: k
Encoding: 107 107 75
Width: 231
VWidth: 0
Flags: HMW
LayerCount: 2
Fore
SplineSet
18 25 m 0
 18 321 l 0
 82 321 l 0
 82 396 l 0
 215 173 l 0
 82 -50 l 0
 82 25 l 0
 18 25 l 0
EndSplineSet
EndChar

StartChar: l
Encoding: 108 108 76
Width: 395
VWidth: 0
Flags: HMW
LayerCount: 2
Fore
SplineSet
70 300 m 0
 141 371 255 371 326 300 c 0
 396 230 396 116 326 46 c 0
 255 -25 141 -25 70 46 c 0
 0 116 0 230 70 300 c 0
EndSplineSet
EndChar

StartChar: m
Encoding: 109 109 77
Width: 436
VWidth: 0
Flags: HMW
LayerCount: 2
Fore
SplineSet
81 289 m 0
 17 225 17 121 81 57 c 0
 147 -9 249 -9 315 57 c 0
 379 121 379 225 315 289 c 0
 249 355 147 355 81 289 c 0
68 296 m 0
 144 372 293 372 369 296 c 0
 436 229 436 116 370 50 c 0
 294 -26 143 -26 67 50 c 0
 2 115 2 230 68 296 c 0
EndSplineSet
EndChar

StartChar: n
Encoding: 110 110 78
Width: 380
VWidth: 0
Flags: HMW
LayerCount: 2
Fore
SplineSet
18 0 m 0
 18 346 l 0
 363 346 l 0
 363 0 l 0
 18 0 l 0
EndSplineSet
EndChar

StartChar: o
Encoding: 111 111 79
Width: 381
VWidth: 0
Flags: HMW
LayerCount: 2
Fore
SplineSet
33 70 m 0
 294 70 l 0
 294 331 l 0
 33 331 l 0
 33 70 l 0
18 55 m 0
 18 346 l 0
 309 346 l 0
 309 291 l 0
 363 291 l 0
 363 0 l 0
 73 0 l 0
 73 55 l 0
 18 55 l 0
EndSplineSet
EndChar

StartChar: p
Encoding: 112 112 80
Width: 393
VWidth: 0
Flags: HMW
LayerCount: 2
Fore
SplineSet
217 193 m 0
 228 182 228 164 217 153 c 0
 206 142 188 142 177 153 c 0
 166 164 166 182 177 193 c 0
 188 204 206 204 217 193 c 0
161 173 m 0
 113 144 34 145 27 152 c 0
 13 166 13 181 27 194 c 0
 34 201 113 202 161 173 c 0
233 173 m 0
 281 202 360 201 367 194 c 0
 381 181 381 166 367 152 c 0
 360 145 281 144 233 173 c 0
197 137 m 0
 226 89 225 10 218 3 c 0
 205 -11 190 -11 176 3 c 0
 169 10 168 89 197 137 c 0
197 209 m 0
 168 257 169 336 176 343 c 0
 190 357 205 357 218 343 c 0
 225 336 226 257 197 209 c 0
64 21 m 0
 61 28 54 35 47 38 c 0
 153 136 l 0
 161 137 l 0
 160 129 l 0
 64 21 l 0
347 307 m 0
 240 209 l 0
 232 208 l 0
 233 216 l 0
 330 324 l 0
 333 317 340 310 347 307 c 0
64 324 m 0
 161 216 l 0
 162 208 l 0
 154 209 l 0
 47 307 l 0
 54 310 61 317 64 324 c 0
347 38 m 0
 340 35 333 28 330 21 c 0
 233 131 l 0
 232 139 l 0
 240 138 l 0
 347 38 l 0
EndSplineSet
EndChar

StartChar: q
Encoding: 113 113 81
Width: 393
VWidth: 0
Flags: HMW
LayerCount: 2
Fore
SplineSet
362 141 m 0
 345 124 296 130 245 172 c 0
 296 214 345 220 362 203 c 0
 382 183 382 161 362 141 c 0
32 141 m 0
 12 161 12 183 32 203 c 0
 49 220 98 214 149 172 c 0
 98 130 49 124 32 141 c 0
223 199 m 0
 238 184 238 160 223 145 c 0
 208 130 184 130 169 145 c 0
 154 160 154 184 169 199 c 0
 184 214 208 214 223 199 c 0
165 338 m 0
 185 358 207 358 227 338 c 0
 244 321 238 272 196 221 c 0
 154 272 148 321 165 338 c 0
227 8 m 0
 207 -12 185 -12 165 8 c 0
 148 25 154 74 196 125 c 0
 238 74 244 25 227 8 c 0
241 226 m 0
 337 322 l 0
 346 313 l 0
 250 217 l 0
 241 226 l 0
46 313 m 0
 55 322 l 0
 151 226 l 0
 142 217 l 0
 46 313 l 0
46 31 m 0
 141 126 l 0
 150 117 l 0
 55 22 l 0
 46 31 l 0
241 118 m 0
 250 127 l 0
 346 31 l 0
 337 22 l 0
 241 118 l 0
EndSplineSet
EndChar

StartChar: r
Encoding: 114 114 82
Width: 356
VWidth: 0
Flags: HMW
LayerCount: 2
Fore
SplineSet
254 226 m 0
 250 235 251 259 264 272 c 0
 282 290 309 290 327 272 c 0
 343 256 343 227 326 210 c 0
 309 193 284 192 261 213 c 0
 193 173 l 0
 261 133 l 0
 284 154 309 153 326 136 c 0
 343 119 343 90 327 74 c 0
 309 56 282 56 264 74 c 0
 251 87 250 111 254 120 c 0
 186 160 l 0
 186 80 l 0
 226 70 233 29 210 6 c 0
 193 -11 165 -11 148 6 c 0
 125 29 132 70 171 80 c 0
 171 160 l 0
 103 120 l 0
 107 111 106 87 93 74 c 0
 75 56 48 56 30 74 c 0
 14 90 14 119 31 136 c 0
 48 153 73 154 96 133 c 0
 164 173 l 0
 96 213 l 0
 73 192 48 193 31 210 c 0
 14 227 14 256 30 272 c 0
 48 290 75 290 93 272 c 0
 106 259 107 235 103 226 c 0
 171 186 l 0
 171 266 l 0
 132 276 125 317 148 340 c 0
 165 357 193 357 210 340 c 0
 233 317 226 276 186 266 c 0
 186 186 l 0
 254 226 l 0
EndSplineSet
EndChar

StartChar: s
Encoding: 115 115 83
Width: 446
VWidth: 0
Flags: HMW
LayerCount: 2
Fore
SplineSet
428 0 m 0
 18 0 l 0
 223 353 l 0
 428 0 l 0
EndSplineSet
EndChar

StartChar: t
Encoding: 116 116 84
Width: 446
VWidth: 0
Flags: HMW
LayerCount: 2
Fore
SplineSet
223 -7 m 0
 18 346 l 0
 428 346 l 0
 223 -7 l 0
EndSplineSet
EndChar

StartChar: u
Encoding: 117 117 85
Width: 395
VWidth: 0
Flags: HMW
LayerCount: 2
Fore
SplineSet
264 178 m 0
 311 181 356 203 369 190 c 0
 380 179 380 167 369 156 c 0
 356 143 311 165 264 168 c 0
 264 178 l 0
25 190 m 0
 38 203 83 181 130 178 c 0
 130 168 l 0
 83 165 38 143 25 156 c 0
 14 167 14 179 25 190 c 0
201 106 m 0
 204 59 226 14 213 1 c 0
 202 -10 190 -10 179 1 c 0
 166 14 188 59 191 106 c 0
 201 106 l 0
201 240 m 0
 191 240 l 0
 188 287 166 332 179 345 c 0
 190 356 202 356 213 345 c 0
 226 332 204 287 201 240 c 0
152 224 m 0
 145 217 l 0
 110 248 62 264 62 283 c 0
 62 298 71 307 86 307 c 0
 105 307 121 259 152 224 c 0
240 224 m 0
 271 259 287 307 306 307 c 0
 321 307 330 298 330 283 c 0
 330 264 282 248 247 217 c 0
 240 224 l 0
247 129 m 0
 282 98 330 82 330 63 c 0
 330 48 321 39 306 39 c 0
 287 39 271 87 240 122 c 0
 247 129 l 0
145 129 m 0
 152 122 l 0
 121 87 105 39 86 39 c 0
 71 39 62 48 62 63 c 0
 62 82 110 98 145 129 c 0
229 206 m 0
 246 188 246 158 229 140 c 0
 211 123 181 123 163 140 c 0
 146 158 146 188 163 206 c 0
 181 223 211 223 229 206 c 0
EndSplineSet
EndChar

StartChar: v
Encoding: 118 118 86
Width: 392
VWidth: 0
Flags: HMW
LayerCount: 2
Fore
SplineSet
94 96 m 0
 17 173 l 0
 94 250 l 0
 171 173 l 0
 94 96 l 0
119 70 m 0
 196 147 l 0
 273 70 l 0
 196 -7 l 0
 119 70 l 0
273 276 m 0
 196 199 l 0
 119 276 l 0
 196 353 l 0
 273 276 l 0
376 173 m 0
 299 96 l 0
 222 173 l 0
 299 250 l 0
 376 173 l 0
EndSplineSet
EndChar

StartChar: w
Encoding: 119 119 87
Width: 219
VWidth: 0
Flags: HMW
LayerCount: 2
Fore
SplineSet
148 300 m 0
 220 228 220 118 148 46 c 0
 110 8 67 -4 18 -7 c 0
 18 353 l 0
 67 350 110 338 148 300 c 0
EndSplineSet
EndChar

StartChar: x
Encoding: 120 120 88
Width: 69
VWidth: 0
Flags: HMW
LayerCount: 2
Fore
SplineSet
52 346 m 0
 52 0 l 0
 18 0 l 0
 18 346 l 0
 52 346 l 0
EndSplineSet
EndChar

StartChar: y
Encoding: 121 121 89
Width: 138
VWidth: 0
Flags: HMW
LayerCount: 2
Fore
SplineSet
121 346 m 0
 121 0 l 0
 18 0 l 0
 18 346 l 0
 121 346 l 0
EndSplineSet
EndChar

StartChar: z
Encoding: 122 122 90
Width: 207
VWidth: 0
Flags: HMW
LayerCount: 2
Fore
SplineSet
190 346 m 0
 190 0 l 0
 18 0 l 0
 18 346 l 0
 190 346 l 0
EndSplineSet
EndChar

StartChar: braceleft
Encoding: 123 123 91
Width: 196
VWidth: 0
Flags: HMW
LayerCount: 2
Fore
SplineSet
157 256 m 0
 186 228 184 181 158 155 c 0
 127 124 74 124 45 153 c 0
 6 192 6 269 52 315 c 0
 67 331 100 353 171 353 c 0
 171 340 l 0
 75 340 49 288 67 270 c 0
 76 261 122 291 157 256 c 0
EndSplineSet
EndChar

StartChar: bar
Encoding: 124 124 92
Width: 196
VWidth: 0
Flags: HMW
LayerCount: 2
Fore
SplineSet
24 145 m 0
 120 145 146 197 128 215 c 0
 119 224 73 194 38 229 c 0
 9 257 11 304 37 330 c 0
 68 361 121 361 150 332 c 0
 189 293 189 216 143 170 c 0
 128 154 95 132 24 132 c 0
 24 145 l 0
EndSplineSet
EndChar

StartChar: braceright
Encoding: 125 125 93
Width: 334
VWidth: 0
Flags: HMW
LayerCount: 2
Fore
SplineSet
67 270 m 0
 76 261 122 291 159 255 c 0
 169 302 203 353 310 353 c 0
 310 340 l 0
 214 340 188 288 206 270 c 0
 215 261 261 291 296 256 c 0
 325 228 323 181 297 155 c 0
 266 124 199 118 170 171 c 0
 143 126 78 119 45 153 c 0
 6 192 6 269 52 315 c 0
 67 331 100 353 171 353 c 0
 171 340 l 0
 75 340 49 288 67 270 c 0
EndSplineSet
EndChar

StartChar: asciitilde
Encoding: 126 126 94
Width: 334
VWidth: 0
Flags: HMW
LayerCount: 2
Fore
SplineSet
163 145 m 0
 259 145 285 197 267 215 c 0
 258 224 212 194 175 230 c 0
 165 183 131 132 24 132 c 0
 24 145 l 0
 120 145 146 197 128 215 c 0
 119 224 73 194 38 229 c 0
 9 257 11 304 37 330 c 0
 68 361 135 367 164 314 c 0
 191 359 256 366 289 332 c 0
 328 293 328 216 282 170 c 0
 267 154 234 132 163 132 c 0
 163 145 l 0
EndSplineSet
EndChar

StartChar: uni0092
Encoding: 146 146 95
Width: 138
VWidth: 0
Flags: HMW
LayerCount: 2
Fore
SplineSet
122 346 m 0
 72 173 l 0
 122 0 l 0
 68 0 l 0
 18 173 l 0
 68 346 l 0
 122 346 l 0
EndSplineSet
EndChar

StartChar: uni0093
Encoding: 147 147 96
Width: 205
VWidth: 0
Flags: HMW
LayerCount: 2
Fore
SplineSet
69 173 m 0
 18 346 l 0
 137 346 l 0
 188 173 l 0
 137 0 l 0
 18 0 l 0
 69 173 l 0
EndSplineSet
EndChar

StartChar: uni0094
Encoding: 148 148 97
Width: 205
VWidth: 0
Flags: HMW
LayerCount: 2
Fore
SplineSet
137 173 m 0
 188 0 l 0
 69 0 l 0
 18 173 l 0
 69 346 l 0
 188 346 l 0
 137 173 l 0
EndSplineSet
EndChar

StartChar: uni0095
Encoding: 149 149 98
Width: 158
VWidth: 0
Flags: HMW
LayerCount: 2
Fore
SplineSet
142 346 m 0
 111 282 102 221 102 173 c 0
 102 125 111 64 142 0 c 0
 86 0 l 0
 42 54 18 111 18 173 c 0
 18 235 42 292 86 346 c 0
 142 346 l 0
EndSplineSet
EndChar

StartChar: uni0096
Encoding: 150 150 99
Width: 195
VWidth: 0
Flags: HMW
LayerCount: 2
Fore
SplineSet
74 173 m 0
 74 95 107 36 178 -3 c 0
 174 -7 l 0
 78 15 18 82 18 173 c 0
 18 264 78 331 174 353 c 0
 178 349 l 0
 107 310 74 251 74 173 c 0
EndSplineSet
EndChar

StartChar: uni0097
Encoding: 151 151 100
Width: 117
VWidth: 0
Flags: HMW
LayerCount: 2
Fore
SplineSet
73 43 m 0
 73 303 l 0
 18 349 l 0
 30 353 l 0
 100 303 l 0
 100 43 l 0
 30 -7 l 0
 18 -3 l 0
 73 43 l 0
EndSplineSet
EndChar

StartChar: uni0098
Encoding: 152 152 101
Width: 254
VWidth: 0
Flags: HMW
LayerCount: 2
Fore
SplineSet
141 0 m 0
 18 173 l 0
 141 346 l 0
 238 346 l 0
 115 173 l 0
 238 0 l 0
 141 0 l 0
EndSplineSet
EndChar

StartChar: uni0099
Encoding: 153 153 102
Width: 254
VWidth: 0
Flags: HMW
LayerCount: 2
Fore
SplineSet
115 0 m 0
 18 0 l 0
 141 173 l 0
 18 346 l 0
 115 346 l 0
 238 173 l 0
 115 0 l 0
EndSplineSet
EndChar

StartChar: uni009A
Encoding: 154 154 103
Width: 117
VWidth: 0
Flags: HMW
LayerCount: 2
Fore
SplineSet
45 43 m 0
 100 -3 l 0
 88 -7 l 0
 18 43 l 0
 18 303 l 0
 88 353 l 0
 100 349 l 0
 45 303 l 0
 45 43 l 0
EndSplineSet
EndChar

StartChar: uni009B
Encoding: 155 155 104
Width: 138
VWidth: 0
Flags: HMW
LayerCount: 2
Fore
SplineSet
18 346 m 0
 72 346 l 0
 122 173 l 0
 72 0 l 0
 18 0 l 0
 68 173 l 0
 18 346 l 0
EndSplineSet
EndChar

StartChar: uni009C
Encoding: 156 156 105
Width: 195
VWidth: 0
Flags: HMW
LayerCount: 2
Fore
SplineSet
18 -3 m 0
 89 36 122 95 122 173 c 0
 122 251 89 310 18 349 c 0
 22 353 l 0
 118 331 178 264 178 173 c 0
 178 82 118 15 22 -7 c 0
 18 -3 l 0
EndSplineSet
EndChar

StartChar: uni009D
Encoding: 157 157 106
Width: 158
VWidth: 0
Flags: HMW
LayerCount: 2
Fore
SplineSet
18 0 m 0
 49 64 58 125 58 173 c 0
 58 221 49 282 18 346 c 0
 74 346 l 0
 118 292 142 235 142 173 c 0
 142 111 118 54 74 0 c 0
 18 0 l 0
EndSplineSet
EndChar

StartChar: uni009E
Encoding: 158 158 107
Width: 167
VWidth: 0
Flags: HMW
LayerCount: 2
Fore
SplineSet
43 297 m 0
 42 338 73 346 102 346 c 0
 150 346 l 0
 150 340 l 0
 119 340 117 328 117 315 c 0
 117 217 l 0
 117 179 104 176 83 173 c 0
 104 170 117 167 117 129 c 0
 117 31 l 0
 117 18 119 6 150 6 c 0
 150 0 l 0
 102 0 l 0
 73 0 42 8 43 49 c 0
 43 138 l 0
 43 159 30 170 18 173 c 0
 30 176 43 187 43 208 c 0
 43 297 l 0
EndSplineSet
EndChar

StartChar: uni009F
Encoding: 159 159 108
Width: 167
VWidth: 0
Flags: HMW
LayerCount: 2
Fore
SplineSet
125 297 m 0
 125 208 l 0
 125 187 138 176 150 173 c 0
 138 170 125 159 125 138 c 0
 125 49 l 0
 126 8 95 0 66 0 c 0
 18 0 l 0
 18 6 l 0
 49 6 51 18 51 31 c 0
 51 129 l 0
 51 167 64 170 85 173 c 0
 64 176 51 179 51 217 c 0
 51 315 l 0
 51 328 49 340 18 340 c 0
 18 346 l 0
 66 346 l 0
 95 346 126 338 125 297 c 0
EndSplineSet
EndChar

StartChar: exclamdown
Encoding: 161 161 109
Width: 366
VWidth: 0
Flags: HMW
LayerCount: 2
Fore
SplineSet
240 340 m 0
 240 397 l 0
 260 403 l 0
 260 340 l 0
 348 340 l 0
 341 323 318 319 260 322 c 0
 260 135 l 0
 260 40 244 -6 209 -40 c 0
 169 -81 108 -81 77 -49 c 0
 49 -22 47 21 70 44 c 0
 91 65 120 65 136 49 c 0
 152 33 153 14 139 0 c 0
 133 -6 77 -10 110 -43 c 0
 127 -60 172 -60 200 -33 c 0
 233 1 240 51 240 123 c 0
 184 119 97 105 46 156 c 0
 7 195 7 266 45 304 c 0
 87 347 156 340 240 340 c 0
240 132 m 0
 240 322 l 0
 194 322 l 0
 184 251 178 198 189 145 c 0
 203 137 222 133 240 132 c 0
EndSplineSet
EndChar

StartChar: cent
Encoding: 162 162 110
Width: 272
VWidth: 0
Flags: HMW
LayerCount: 2
Fore
SplineSet
188 117 m 0
 215 91 217 43 188 15 c 0
 159 -14 113 -14 84 15 c 0
 55 43 57 91 84 117 c 0
 113 147 159 147 188 117 c 0
226 231 m 0
 198 203 148 204 136 154 c 0
 124 204 74 203 46 231 c 0
 23 255 22 308 46 332 c 0
 65 351 100 353 124 353 c 0
 148 353 l 0
 172 353 207 351 226 332 c 0
 250 308 249 255 226 231 c 0
EndSplineSet
EndChar

StartChar: sterling
Encoding: 163 163 111
Width: 272
VWidth: 0
Flags: HMW
LayerCount: 2
Fore
SplineSet
86 112 m 0
 114 140 158 140 186 112 c 0
 212 87 213 41 186 14 c 0
 158 -14 114 -14 86 14 c 0
 59 41 60 87 86 112 c 0
136 152 m 0
 120 195 54 211 36 229 c 0
 12 253 11 310 36 335 c 0
 61 360 117 368 136 297 c 0
 155 368 211 360 236 335 c 0
 261 310 260 253 236 229 c 0
 218 211 152 195 136 152 c 0
EndSplineSet
EndChar

StartChar: currency
Encoding: 164 164 112
Width: 455
VWidth: 0
Flags: HMW
LayerCount: 2
Fore
SplineSet
227 239 m 0
 256 339 358 345 410 295 c 0
 445 259 449 188 404 144 c 0
 360 99 274 107 227 20 c 0
 180 107 94 99 50 144 c 0
 5 188 9 259 44 295 c 0
 96 345 198 339 227 239 c 0
EndSplineSet
EndChar

StartChar: yen
Encoding: 165 165 113
Width: 333
VWidth: 0
Flags: HMW
LayerCount: 2
Fore
SplineSet
43 19 m 0
 1 61 5 146 95 169 c 0
 95 177 l 0
 5 200 1 285 43 327 c 0
 77 361 134 362 169 327 c 0
 202 294 207 171 317 190 c 0
 317 156 l 0
 207 175 202 52 169 19 c 0
 134 -16 77 -15 43 19 c 0
EndSplineSet
EndChar

StartChar: brokenbar
Encoding: 166 166 114
Width: 380
VWidth: 0
Flags: HMW
LayerCount: 2
Fore
SplineSet
221 274 m 0
 223 295 219 319 211 327 c 0
 202 337 186 340 181 334 c 0
 167 321 173 296 221 274 c 0
116 42 m 0
 62 95 67 184 96 213 c 0
 132 249 193 237 188 180 c 0
 201 175 l 0
 225 227 281 228 303 205 c 0
 325 184 331 138 296 103 c 0
 264 71 172 67 209 12 c 0
 227 -14 270 13 270 44 c 0
 270 53 290 61 298 52 c 0
 307 39 308 27 294 13 c 0
 262 -19 174 -16 116 42 c 0
344 277 m 0
 303 236 261 239 230 255 c 0
 201 200 l 0
 193 222 214 237 218 260 c 0
 143 306 90 346 60 315 c 0
 21 277 52 259 54 251 c 0
 57 241 28 229 22 240 c 0
 8 265 25 294 46 315 c 0
 83 352 124 349 163 316 c 0
 164 326 167 335 174 342 c 0
 189 358 208 357 225 340 c 0
 246 320 242 293 236 267 c 0
 286 233 353 278 302 314 c 0
 302 324 304 337 314 346 c 0
 323 355 343 357 354 345 c 0
 367 332 366 299 344 277 c 0
EndSplineSet
EndChar

StartChar: section
Encoding: 167 167 115
Width: 380
VWidth: 0
Flags: HMW
LayerCount: 2
Fore
SplineSet
9 128 m 0
 15 172 42 204 91 209 c 0
 88 235 53 214 27 240 c 0
 18 250 19 268 29 278 c 0
 37 286 47 287 58 285 c 0
 33 240 102 251 105 209 c 0
 123 208 146 204 166 184 c 0
 153 207 157 234 173 250 c 0
 189 266 233 267 261 239 c 0
 305 195 272 143 301 122 c 0
 327 105 354 116 348 153 c 0
 346 164 361 178 374 165 c 0
 383 156 382 142 368 128 c 0
 298 59 188 40 142 86 c 0
 116 112 117 152 157 171 c 0
 147 189 123 199 106 198 c 0
 105 165 72 138 37 122 c 0
 41 98 67 94 82 106 c 0
 99 57 24 42 9 108 c 0
 -3 110 -3 123 9 128 c 0
35 143 m 0
 68 147 94 175 94 198 c 0
 60 197 40 177 35 143 c 0
EndSplineSet
EndChar

StartChar: dieresis
Encoding: 168 168 116
Width: 388
VWidth: 0
Flags: HMW
LayerCount: 2
Fore
SplineSet
191 149 m 0
 182 137 172 121 158 107 c 0
 123 72 72 74 41 105 c 0
 10 136 10 187 42 219 c 0
 64 241 99 239 135 223 c 0
 111 260 110 301 139 330 c 0
 170 361 219 361 250 330 c 0
 279 301 278 260 254 223 c 0
 290 239 325 241 347 219 c 0
 379 187 379 136 348 105 c 0
 317 74 266 72 231 107 c 0
 217 121 207 137 198 149 c 0
 198 69 229 21 315 10 c 0
 318 0 l 0
 71 0 l 0
 74 10 l 0
 160 21 191 69 191 149 c 0
EndSplineSet
EndChar

StartChar: copyright
Encoding: 169 169 117
Width: 297
VWidth: 0
Flags: HMW
LayerCount: 2
Fore
SplineSet
280 173 m 0
 244 126 193 61 149 -7 c 0
 105 61 54 126 18 173 c 0
 54 220 105 285 149 353 c 0
 193 285 244 220 280 173 c 0
EndSplineSet
EndChar

StartChar: ordfeminine
Encoding: 170 170 118
Width: 347
VWidth: 0
Flags: HMW
LayerCount: 2
Fore
SplineSet
71 167 m 0
 23 220 -3 288 41 332 c 0
 70 361 118 360 146 332 c 0
 165 313 169 301 174 276 c 0
 179 301 183 313 202 332 c 0
 230 360 278 361 307 332 c 0
 351 288 325 220 277 167 c 0
 234 118 190 59 174 -7 c 0
 158 59 114 118 71 167 c 0
EndSplineSet
EndChar

StartChar: guillemotleft
Encoding: 171 171 119
Width: 313
VWidth: 0
Flags: HMW
LayerCount: 2
Fore
SplineSet
157 353 m 0
 168 319 178 291 202 267 c 0
 225 244 247 232 269 210 c 0
 304 175 304 127 276 99 c 0
 252 75 201 68 159 132 c 0
 163 73 175 15 270 13 c 0
 273 0 l 0
 41 0 l 0
 44 13 l 0
 139 15 151 73 155 132 c 0
 113 68 62 75 38 99 c 0
 10 127 10 175 45 210 c 0
 67 232 89 244 112 267 c 0
 136 291 146 319 157 353 c 0
EndSplineSet
EndChar

StartChar: logicalnot
Encoding: 172 172 120
Width: 394
VWidth: 0
Flags: HMW
LayerCount: 2
Fore
SplineSet
326 46 m 0
 255 -25 141 -25 70 46 c 0
 1 115 1 231 70 300 c 0
 141 371 255 371 326 300 c 0
 395 231 395 115 326 46 c 0
315 58 m 0
 378 121 378 225 315 288 c 0
 249 354 147 354 81 288 c 0
 18 225 18 121 81 58 c 0
 147 -8 249 -8 315 58 c 0
267 70 m 0
 267 58 l 0
 136 58 l 0
 136 70 l 0
 173 70 180 75 180 95 c 0
 180 226 l 0
 180 235 172 238 167 238 c 0
 132 238 l 0
 132 251 l 0
 178 256 193 266 211 286 c 0
 223 286 l 0
 223 95 l 0
 223 75 230 70 267 70 c 0
EndSplineSet
EndChar

StartChar: uni00AD
Encoding: 173 173 121
Width: 394
VWidth: 0
Flags: HMW
LayerCount: 2
Fore
SplineSet
81 288 m 0
 18 225 18 121 81 58 c 0
 147 -8 249 -8 315 58 c 0
 378 121 378 225 315 288 c 0
 249 354 147 354 81 288 c 0
70 300 m 0
 141 371 255 371 326 300 c 0
 395 231 395 115 326 46 c 0
 255 -25 141 -25 70 46 c 0
 1 115 1 231 70 300 c 0
143 101 m 0
 248 101 l 0
 263 101 267 102 267 114 c 0
 267 144 l 0
 283 144 l 0
 283 58 l 0
 114 58 l 0
 111 108 141 137 189 167 c 0
 229 193 240 247 218 269 c 0
 205 282 187 281 176 270 c 0
 157 251 185 247 167 229 c 0
 157 219 145 218 135 228 c 0
 126 237 124 257 141 274 c 0
 171 304 239 294 259 274 c 0
 286 247 280 207 260 187 c 0
 226 153 161 151 143 101 c 0
EndSplineSet
EndChar

StartChar: registered
Encoding: 174 174 122
Width: 394
VWidth: 0
Flags: HMW
LayerCount: 2
Fore
SplineSet
81 288 m 0
 18 225 18 121 81 58 c 0
 147 -8 249 -8 315 58 c 0
 378 121 378 225 315 288 c 0
 249 354 147 354 81 288 c 0
70 300 m 0
 141 371 255 371 326 300 c 0
 395 231 395 115 326 46 c 0
 255 -25 141 -25 70 46 c 0
 1 115 1 231 70 300 c 0
220 170 m 0
 206 184 191 185 166 180 c 0
 166 192 l 0
 234 187 240 248 216 272 c 0
 204 284 179 282 170 273 c 0
 158 261 176 252 164 240 c 0
 153 229 138 230 131 237 c 0
 122 246 122 262 135 275 c 0
 158 298 232 303 258 278 c 0
 285 250 271 206 218 192 c 0
 238 183 259 182 274 167 c 0
 291 150 291 107 269 85 c 0
 236 52 159 44 125 78 c 0
 111 92 110 115 119 124 c 0
 130 135 148 135 158 125 c 0
 172 111 152 95 162 85 c 0
 177 70 202 72 217 87 c 0
 242 112 241 149 220 170 c 0
EndSplineSet
EndChar

StartChar: macron
Encoding: 175 175 123
Width: 394
VWidth: 0
Flags: HMW
LayerCount: 2
Fore
SplineSet
81 58 m 0
 147 -8 249 -8 315 58 c 0
 378 121 378 225 315 288 c 0
 249 354 147 354 81 288 c 0
 18 225 18 121 81 58 c 0
70 46 m 0
 1 115 1 231 70 300 c 0
 141 371 255 371 326 300 c 0
 395 231 395 115 326 46 c 0
 255 -25 141 -25 70 46 c 0
261 73 m 0
 261 58 l 0
 147 58 l 0
 147 73 l 0
 179 73 189 78 189 90 c 0
 189 118 l 0
 93 118 l 0
 93 133 l 0
 200 286 l 0
 230 286 l 0
 230 140 l 0
 283 140 l 0
 283 118 l 0
 230 118 l 0
 230 90 l 0
 230 80 236 73 261 73 c 0
118 140 m 0
 189 140 l 0
 189 242 l 0
 118 140 l 0
EndSplineSet
EndChar

StartChar: degree
Encoding: 176 176 124
Width: 394
VWidth: 0
Flags: HMW
LayerCount: 2
Fore
SplineSet
81 58 m 0
 147 -8 249 -8 315 58 c 0
 378 121 378 225 315 288 c 0
 249 354 147 354 81 288 c 0
 18 225 18 121 81 58 c 0
70 46 m 0
 1 115 1 231 70 300 c 0
 141 371 255 371 326 300 c 0
 395 231 395 115 326 46 c 0
 255 -25 141 -25 70 46 c 0
123 73 m 0
 102 94 104 113 114 123 c 0
 124 133 138 133 149 122 c 0
 167 104 140 93 153 80 c 0
 165 68 189 67 203 81 c 0
 230 108 230 149 210 169 c 0
 194 185 163 185 143 159 c 0
 126 165 l 0
 139 291 l 0
 192 276 228 278 273 287 c 0
 271 229 211 241 149 245 c 0
 143 182 l 0
 188 209 236 200 262 174 c 0
 284 152 285 110 259 84 c 0
 222 47 146 50 123 73 c 0
EndSplineSet
EndChar

StartChar: plusminus
Encoding: 177 177 125
Width: 394
VWidth: 0
Flags: HMW
LayerCount: 2
Fore
SplineSet
81 58 m 0
 147 -8 249 -8 315 58 c 0
 378 121 378 225 315 288 c 0
 249 354 147 354 81 288 c 0
 18 225 18 121 81 58 c 0
70 46 m 0
 1 115 1 231 70 300 c 0
 141 371 255 371 326 300 c 0
 395 231 395 115 326 46 c 0
 255 -25 141 -25 70 46 c 0
229 165 m 0
 213 181 187 181 170 164 c 0
 148 142 150 101 169 82 c 0
 185 66 213 66 229 82 c 0
 247 100 248 146 229 165 c 0
152 162 m 0
 178 203 238 206 263 181 c 0
 293 151 292 107 263 78 c 0
 232 47 163 47 132 78 c 0
 90 120 91 215 140 263 c 0
 174 298 233 296 261 268 c 0
 275 254 275 233 265 223 c 0
 258 216 244 216 238 222 c 0
 218 242 245 251 228 268 c 0
 216 280 194 280 176 262 c 0
 148 234 152 176 152 162 c 0
EndSplineSet
EndChar

StartChar: uni00B2
Encoding: 178 178 126
Width: 394
VWidth: 0
Flags: HMW
LayerCount: 2
Fore
SplineSet
326 300 m 0
 395 231 395 115 326 46 c 0
 255 -25 141 -25 70 46 c 0
 1 115 1 231 70 300 c 0
 141 371 255 371 326 300 c 0
315 288 m 0
 249 354 147 354 81 288 c 0
 18 225 18 121 81 58 c 0
 147 -8 249 -8 315 58 c 0
 378 121 378 225 315 288 c 0
154 245 m 0
 138 245 134 240 125 206 c 0
 113 206 l 0
 115 286 l 0
 289 286 l 0
 223 177 l 0
 205 148 201 130 201 122 c 0
 201 102 212 78 198 64 c 0
 185 51 169 51 156 64 c 0
 145 75 140 101 187 164 c 0
 248 245 l 0
 154 245 l 0
EndSplineSet
EndChar

StartChar: uni00B3
Encoding: 179 179 127
Width: 394
VWidth: 0
Flags: HMW
LayerCount: 2
Fore
SplineSet
179 171 m 0
 139 149 139 106 160 85 c 0
 178 67 208 66 227 85 c 0
 242 100 242 128 228 142 c 0
 215 155 200 158 179 171 c 0
252 272 m 0
 270 254 269 214 230 195 c 0
 280 175 295 113 261 79 c 0
 231 49 162 45 127 80 c 0
 107 100 109 157 162 180 c 0
 118 206 128 250 146 268 c 0
 173 295 228 296 252 272 c 0
213 201 m 0
 237 218 246 248 228 266 c 0
 216 278 190 279 176 265 c 0
 165 254 165 235 176 224 c 0
 188 212 201 209 213 201 c 0
326 46 m 0
 255 -25 141 -25 70 46 c 0
 1 115 1 231 70 300 c 0
 141 371 255 371 326 300 c 0
 395 231 395 115 326 46 c 0
315 58 m 0
 378 121 378 225 315 288 c 0
 249 354 147 354 81 288 c 0
 18 225 18 121 81 58 c 0
 147 -8 249 -8 315 58 c 0
EndSplineSet
EndChar

StartChar: acute
Encoding: 180 180 128
Width: 394
VWidth: 0
Flags: HMW
LayerCount: 2
Fore
SplineSet
81 58 m 0
 147 -8 249 -8 315 58 c 0
 378 121 378 225 315 288 c 0
 249 354 147 354 81 288 c 0
 18 225 18 121 81 58 c 0
70 46 m 0
 1 115 1 231 70 300 c 0
 141 371 255 371 326 300 c 0
 395 231 395 115 326 46 c 0
 255 -25 141 -25 70 46 c 0
244 173 m 0
 210 140 160 136 130 166 c 0
 105 191 104 234 134 264 c 0
 168 298 229 297 260 266 c 0
 310 216 301 122 258 79 c 0
 219 40 156 52 133 75 c 0
 120 88 120 107 131 118 c 0
 142 129 153 128 160 121 c 0
 182 99 153 93 168 78 c 0
 181 65 205 65 222 82 c 0
 241 101 244 139 244 173 c 0
226 264 m 0
 212 278 185 279 169 263 c 0
 150 244 151 197 169 179 c 0
 184 164 213 164 229 180 c 0
 246 197 248 242 226 264 c 0
EndSplineSet
EndChar

StartChar: mu
Encoding: 181 181 129
Width: 394
VWidth: 0
Flags: HMW
LayerCount: 2
Fore
SplineSet
81 58 m 0
 147 -8 249 -8 315 58 c 0
 378 121 378 225 315 288 c 0
 249 354 147 354 81 288 c 0
 18 225 18 121 81 58 c 0
70 46 m 0
 1 115 1 231 70 300 c 0
 141 371 255 371 326 300 c 0
 395 231 395 115 326 46 c 0
 255 -25 141 -25 70 46 c 0
191 74 m 0
 191 58 l 0
 100 58 l 0
 100 74 l 0
 117 74 127 75 127 87 c 0
 127 225 l 0
 127 234 126 245 114 245 c 0
 86 245 l 0
 86 256 l 0
 119 256 137 270 151 286 c 0
 165 286 l 0
 165 87 l 0
 165 75 175 74 191 74 c 0
274 77 m 0
 286 89 288 137 288 174 c 0
 288 211 286 259 274 271 c 0
 268 277 256 277 250 271 c 0
 238 259 236 211 236 174 c 0
 236 137 238 89 250 77 c 0
 256 71 268 71 274 77 c 0
302 70 m 0
 282 50 242 50 222 70 c 0
 180 112 180 233 218 271 c 0
 242 295 282 295 306 271 c 0
 344 233 344 112 302 70 c 0
EndSplineSet
EndChar

StartChar: paragraph
Encoding: 182 182 130
Width: 394
VWidth: 0
Flags: HMW
LayerCount: 2
Fore
SplineSet
70 300 m 0
 141 371 255 371 326 300 c 0
 395 231 395 115 326 46 c 0
 255 -25 141 -25 70 46 c 0
 1 115 1 231 70 300 c 0
211 303 m 0
 188 274 159 265 122 263 c 0
 122 246 l 0
 160 246 l 0
 166 246 176 241 176 232 c 0
 176 87 l 0
 176 70 174 63 127 63 c 0
 127 45 l 0
 277 45 l 0
 277 63 l 0
 231 63 229 70 229 87 c 0
 229 303 l 0
 211 303 l 0
EndSplineSet
EndChar

StartChar: periodcentered
Encoding: 183 183 131
Width: 394
VWidth: 0
Flags: HMW
LayerCount: 2
Fore
SplineSet
326 300 m 0
 395 231 395 115 326 46 c 0
 255 -25 141 -25 70 46 c 0
 1 115 1 231 70 300 c 0
 141 371 255 371 326 300 c 0
254 95 m 0
 140 95 l 0
 165 152 231 151 265 185 c 0
 293 213 293 259 273 279 c 0
 243 309 166 317 132 283 c 0
 116 267 114 243 129 228 c 0
 138 219 155 218 167 230 c 0
 187 250 159 256 175 272 c 0
 188 285 208 285 218 275 c 0
 235 258 235 214 205 184 c 0
 170 149 161 153 132 124 c 0
 109 101 102 83 105 45 c 0
 293 45 l 0
 293 140 l 0
 271 140 l 0
 271 87 271 95 254 95 c 0
EndSplineSet
EndChar

StartChar: cedilla
Encoding: 184 184 132
Width: 394
VWidth: 0
Flags: HMW
LayerCount: 2
Fore
SplineSet
70 300 m 0
 141 371 255 371 326 300 c 0
 395 231 395 115 326 46 c 0
 255 -25 141 -25 70 46 c 0
 1 115 1 231 70 300 c 0
158 175 m 0
 185 180 203 180 220 163 c 0
 243 140 238 101 213 76 c 0
 198 61 172 61 158 75 c 0
 146 87 171 99 152 118 c 0
 141 129 119 129 107 117 c 0
 97 107 98 82 115 65 c 0
 149 31 237 36 275 74 c 0
 300 99 299 146 280 165 c 0
 264 181 245 183 218 190 c 0
 273 198 294 254 263 285 c 0
 232 316 151 310 124 283 c 0
 110 269 110 249 123 236 c 0
 131 228 149 228 160 239 c 0
 174 253 156 262 170 276 c 0
 181 287 203 287 214 276 c 0
 242 248 222 186 158 194 c 0
 158 175 l 0
EndSplineSet
EndChar

StartChar: uni00B9
Encoding: 185 185 133
Width: 394
VWidth: 0
Flags: HMW
LayerCount: 2
Fore
SplineSet
325 46 m 0
 254 -25 140 -25 69 46 c 0
 0 115 0 231 69 300 c 0
 140 371 254 371 325 300 c 0
 394 231 394 115 325 46 c 0
269 62 m 0
 240 62 236 74 236 81 c 0
 236 113 l 0
 293 113 l 0
 293 137 l 0
 236 137 l 0
 236 303 l 0
 197 303 l 0
 78 130 l 0
 78 113 l 0
 184 113 l 0
 184 81 l 0
 184 62 153 62 138 62 c 0
 138 45 l 0
 269 45 l 0
 269 62 l 0
184 246 m 0
 184 138 l 0
 110 138 l 0
 184 246 l 0
EndSplineSet
EndChar

StartChar: ordmasculine
Encoding: 186 186 134
Width: 394
VWidth: 0
Flags: HMW
LayerCount: 2
Fore
SplineSet
326 46 m 0
 255 -25 141 -25 70 46 c 0
 1 115 1 231 70 300 c 0
 141 371 255 371 326 300 c 0
 395 231 395 115 326 46 c 0
142 185 m 0
 148 248 l 0
 195 250 277 218 286 303 c 0
 232 293 186 294 131 306 c 0
 117 163 l 0
 140 153 l 0
 161 187 195 181 209 167 c 0
 229 147 229 100 203 74 c 0
 186 57 163 59 151 71 c 0
 140 82 168 96 146 118 c 0
 134 130 115 130 102 117 c 0
 91 106 91 83 108 66 c 0
 143 31 223 31 267 75 c 0
 294 102 295 150 268 177 c 0
 237 208 187 213 142 185 c 0
EndSplineSet
EndChar

StartChar: guillemotright
Encoding: 187 187 135
Width: 394
VWidth: 0
Flags: HMW
LayerCount: 2
Fore
SplineSet
326 46 m 0
 255 -25 141 -25 70 46 c 0
 1 115 1 231 70 300 c 0
 141 371 255 371 326 300 c 0
 395 231 395 115 326 46 c 0
152 169 m 0
 151 207 152 248 175 271 c 0
 193 289 217 289 229 276 c 0
 243 262 220 248 235 233 c 0
 246 222 264 222 274 232 c 0
 284 242 284 269 269 284 c 0
 251 302 174 322 132 280 c 0
 72 220 78 114 124 68 c 0
 160 32 234 31 273 70 c 0
 304 101 304 154 273 185 c 0
 246 212 185 214 152 169 c 0
170 72 m 0
 148 94 148 142 171 165 c 0
 187 181 213 181 228 166 c 0
 249 145 247 91 228 72 c 0
 212 56 184 58 170 72 c 0
EndSplineSet
EndChar

StartChar: onequarter
Encoding: 188 188 136
Width: 394
VWidth: 0
Flags: HMW
LayerCount: 2
Fore
SplineSet
326 46 m 0
 255 -25 141 -25 70 46 c 0
 1 115 1 231 70 300 c 0
 141 371 255 371 326 300 c 0
 395 231 395 115 326 46 c 0
225 180 m 0
 299 303 l 0
 103 303 l 0
 101 208 l 0
 118 208 l 0
 128 238 124 251 146 251 c 0
 246 251 l 0
 179 165 l 0
 134 108 136 64 148 51 c 0
 163 37 185 39 197 51 c 0
 226 80 178 102 225 180 c 0
EndSplineSet
EndChar

StartChar: onehalf
Encoding: 189 189 137
Width: 394
VWidth: 0
Flags: HMW
LayerCount: 2
Fore
SplineSet
326 46 m 0
 255 -25 141 -25 70 46 c 0
 1 115 1 231 70 300 c 0
 141 371 255 371 326 300 c 0
 395 231 395 115 326 46 c 0
175 234 m 0
 165 244 165 263 177 275 c 0
 191 289 213 288 225 276 c 0
 248 253 239 225 215 210 c 0
 197 219 185 224 175 234 c 0
236 200 m 0
 278 218 281 264 260 285 c 0
 231 314 170 313 138 281 c 0
 111 254 113 212 157 183 c 0
 95 159 94 93 122 65 c 0
 155 32 232 30 271 69 c 0
 303 101 303 172 236 200 c 0
178 172 m 0
 197 158 215 152 229 138 c 0
 245 122 244 93 229 78 c 0
 212 61 176 60 157 79 c 0
 139 97 136 139 178 172 c 0
EndSplineSet
EndChar

StartChar: threequarters
Encoding: 190 190 138
Width: 394
VWidth: 0
Flags: HMW
LayerCount: 2
Fore
SplineSet
70 300 m 0
 141 371 255 371 326 300 c 0
 395 231 395 115 326 46 c 0
 255 -25 141 -25 70 46 c 0
 1 115 1 231 70 300 c 0
168 272 m 0
 184 288 212 286 226 272 c 0
 248 250 248 204 225 181 c 0
 209 165 183 165 168 180 c 0
 147 201 149 253 168 272 c 0
221 75 m 0
 203 57 179 57 167 70 c 0
 153 84 176 98 161 113 c 0
 150 124 132 124 122 114 c 0
 112 104 112 77 127 62 c 0
 145 44 222 24 264 66 c 0
 324 126 318 232 272 278 c 0
 236 314 162 315 123 276 c 0
 92 245 92 192 123 161 c 0
 150 134 211 132 244 177 c 0
 245 139 244 98 221 75 c 0
EndSplineSet
EndChar

StartChar: questiondown
Encoding: 191 191 139
Width: 394
VWidth: 0
Flags: HMW
LayerCount: 2
Fore
SplineSet
326 46 m 0
 255 -25 141 -25 70 46 c 0
 1 115 1 231 70 300 c 0
 141 371 255 371 326 300 c 0
 395 231 395 115 326 46 c 0
197 63 m 0
 169 63 165 68 165 78 c 0
 165 303 l 0
 147 303 l 0
 126 277 97 268 69 269 c 0
 69 252 l 0
 98 252 l 0
 111 252 115 238 115 229 c 0
 115 78 l 0
 115 68 111 63 83 63 c 0
 83 45 l 0
 197 45 l 0
 197 63 l 0
314 60 m 0
 360 106 359 246 315 290 c 0
 293 312 244 311 223 290 c 0
 179 246 178 106 224 60 c 0
 247 37 289 35 314 60 c 0
282 285 m 0
 297 270 298 212 298 176 c 0
 298 140 297 82 282 67 c 0
 275 60 263 60 256 67 c 0
 241 82 240 140 240 176 c 0
 240 212 241 270 256 285 c 0
 263 292 275 292 282 285 c 0
EndSplineSet
EndChar

StartChar: Agrave
Encoding: 192 192 140
Width: 394
VWidth: 0
Flags: HMW
LayerCount: 2
Fore
SplineSet
201 286 m 0
 215 286 l 0
 215 58 l 0
 185 58 l 0
 185 234 l 0
 140 234 l 0
 140 251 l 0
 172 251 192 254 201 286 c 0
314 58 m 0
 377 121 377 225 314 288 c 0
 248 354 146 354 80 288 c 0
 17 225 17 121 80 58 c 0
 146 -8 248 -8 314 58 c 0
325 46 m 0
 254 -25 140 -25 69 46 c 0
 0 115 0 231 69 300 c 0
 140 371 254 371 325 300 c 0
 394 231 394 115 325 46 c 0
EndSplineSet
EndChar

StartChar: Aacute
Encoding: 193 193 141
Width: 394
VWidth: 0
Flags: HMW
LayerCount: 2
Fore
SplineSet
125 216 m 0
 124 233 127 254 144 271 c 0
 166 294 223 297 252 268 c 0
 273 248 286 199 241 154 c 0
 209 122 167 117 157 83 c 0
 264 83 l 0
 264 58 l 0
 125 58 l 0
 122 120 179 129 220 170 c 0
 252 202 245 238 228 256 c 0
 211 272 182 273 164 256 c 0
 155 246 151 232 154 213 c 0
 125 216 l 0
314 58 m 0
 377 121 377 225 314 288 c 0
 248 354 146 354 80 288 c 0
 17 225 17 121 80 58 c 0
 146 -8 248 -8 314 58 c 0
325 46 m 0
 254 -25 140 -25 69 46 c 0
 0 115 0 231 69 300 c 0
 140 371 254 371 325 300 c 0
 394 231 394 115 325 46 c 0
EndSplineSet
EndChar

StartChar: Acircumflex
Encoding: 194 194 142
Width: 394
VWidth: 0
Flags: HMW
LayerCount: 2
Fore
SplineSet
151 128 m 0
 153 115 155 101 164 92 c 0
 178 78 214 75 233 94 c 0
 246 107 246 142 234 153 c 0
 223 167 205 174 178 170 c 0
 178 188 l 0
 249 179 246 241 228 258 c 0
 213 274 183 275 164 256 c 0
 159 251 158 240 158 227 c 0
 134 232 l 0
 135 241 139 261 147 269 c 0
 176 298 224 296 249 271 c 0
 270 251 272 193 232 180 c 0
 241 176 252 169 258 161 c 0
 272 148 274 102 249 77 c 0
 224 52 168 53 144 77 c 0
 135 86 126 99 127 122 c 0
 151 128 l 0
314 58 m 0
 377 121 377 225 314 288 c 0
 248 354 146 354 80 288 c 0
 17 225 17 121 80 58 c 0
 146 -8 248 -8 314 58 c 0
325 46 m 0
 254 -25 140 -25 69 46 c 0
 0 115 0 231 69 300 c 0
 140 371 254 371 325 300 c 0
 394 231 394 115 325 46 c 0
EndSplineSet
EndChar

StartChar: Atilde
Encoding: 195 195 143
Width: 394
VWidth: 0
Flags: HMW
LayerCount: 2
Fore
SplineSet
127 138 m 0
 206 138 l 0
 206 251 l 0
 127 138 l 0
206 58 m 0
 206 115 l 0
 103 115 l 0
 103 138 l 0
 206 286 l 0
 229 286 l 0
 229 138 l 0
 268 138 l 0
 268 115 l 0
 229 115 l 0
 229 58 l 0
 206 58 l 0
314 58 m 0
 377 121 377 225 314 288 c 0
 248 354 146 354 80 288 c 0
 17 225 17 121 80 58 c 0
 146 -8 248 -8 314 58 c 0
325 46 m 0
 254 -25 140 -25 69 46 c 0
 0 115 0 231 69 300 c 0
 140 371 254 371 325 300 c 0
 394 231 394 115 325 46 c 0
EndSplineSet
EndChar

StartChar: Adieresis
Encoding: 196 196 144
Width: 394
VWidth: 0
Flags: HMW
LayerCount: 2
Fore
SplineSet
155 118 m 0
 158 105 163 96 171 88 c 0
 185 73 214 73 231 90 c 0
 252 111 253 165 234 184 c 0
 214 204 168 204 157 158 c 0
 138 158 l 0
 138 286 l 0
 256 286 l 0
 256 262 l 0
 161 262 l 0
 161 198 l 0
 189 222 229 221 253 198 c 0
 283 167 282 107 252 77 c 0
 222 47 172 51 148 75 c 0
 141 82 135 97 134 109 c 0
 155 118 l 0
314 58 m 0
 377 121 377 225 314 288 c 0
 248 354 146 354 80 288 c 0
 17 225 17 121 80 58 c 0
 146 -8 248 -8 314 58 c 0
325 46 m 0
 254 -25 140 -25 69 46 c 0
 0 115 0 231 69 300 c 0
 140 371 254 371 325 300 c 0
 394 231 394 115 325 46 c 0
EndSplineSet
EndChar

StartChar: Aring
Encoding: 197 197 145
Width: 394
VWidth: 0
Flags: HMW
LayerCount: 2
Fore
SplineSet
242 189 m 0
 268 162 270 105 242 77 c 0
 214 50 170 52 146 76 c 0
 107 114 110 231 149 270 c 0
 177 298 226 294 245 276 c 0
 250 271 259 255 261 241 c 0
 239 236 l 0
 239 245 233 257 228 262 c 0
 217 272 185 276 164 255 c 0
 151 242 144 207 145 179 c 0
 170 215 217 213 242 189 c 0
162 174 m 0
 143 155 144 109 163 91 c 0
 178 75 210 74 225 89 c 0
 242 106 242 155 226 172 c 0
 208 189 178 190 162 174 c 0
314 58 m 0
 377 121 377 225 314 288 c 0
 248 354 146 354 80 288 c 0
 17 225 17 121 80 58 c 0
 146 -8 248 -8 314 58 c 0
325 46 m 0
 254 -25 140 -25 69 46 c 0
 0 115 0 231 69 300 c 0
 140 371 254 371 325 300 c 0
 394 231 394 115 325 46 c 0
EndSplineSet
EndChar

StartChar: AE
Encoding: 198 198 146
Width: 394
VWidth: 0
Flags: HMW
LayerCount: 2
Fore
SplineSet
273 262 m 0
 199 160 180 87 178 58 c 0
 148 58 l 0
 152 91 171 162 248 262 c 0
 122 262 l 0
 122 286 l 0
 273 286 l 0
 273 262 l 0
69 46 m 0
 0 115 0 231 69 300 c 0
 140 371 254 371 325 300 c 0
 394 231 394 115 325 46 c 0
 254 -25 140 -25 69 46 c 0
80 58 m 0
 146 -8 248 -8 314 58 c 0
 377 121 377 225 314 288 c 0
 248 354 146 354 80 288 c 0
 17 225 17 121 80 58 c 0
EndSplineSet
EndChar

StartChar: Ccedilla
Encoding: 199 199 147
Width: 394
VWidth: 0
Flags: HMW
LayerCount: 2
Fore
SplineSet
164 182 m 0
 124 198 125 248 149 271 c 0
 172 295 223 294 247 271 c 0
 269 248 270 198 230 182 c 0
 286 159 283 107 254 78 c 0
 223 47 170 47 139 78 c 0
 111 107 108 159 164 182 c 0
162 158 m 0
 143 139 142 109 162 89 c 0
 179 72 215 72 232 89 c 0
 252 109 251 139 232 158 c 0
 215 175 179 175 162 158 c 0
224 198 m 0
 243 217 243 243 224 262 c 0
 212 274 182 274 170 262 c 0
 151 243 151 217 170 198 c 0
 182 186 212 186 224 198 c 0
325 46 m 0
 254 -25 140 -25 69 46 c 0
 0 115 0 231 69 300 c 0
 140 371 254 371 325 300 c 0
 394 231 394 115 325 46 c 0
314 58 m 0
 377 121 377 225 314 288 c 0
 248 354 146 354 80 288 c 0
 17 225 17 121 80 58 c 0
 146 -8 248 -8 314 58 c 0
EndSplineSet
EndChar

StartChar: Egrave
Encoding: 200 200 148
Width: 394
VWidth: 0
Flags: HMW
LayerCount: 2
Fore
SplineSet
155 110 m 0
 158 72 203 69 222 89 c 0
 240 106 242 133 244 172 c 0
 221 131 174 130 144 161 c 0
 119 185 117 240 149 272 c 0
 172 295 217 295 241 272 c 0
 278 234 282 119 242 80 c 0
 205 42 141 52 133 105 c 0
 155 110 l 0
314 58 m 0
 377 121 377 225 314 288 c 0
 248 354 146 354 80 288 c 0
 17 225 17 121 80 58 c 0
 146 -8 248 -8 314 58 c 0
325 46 m 0
 254 -25 140 -25 69 46 c 0
 0 115 0 231 69 300 c 0
 140 371 254 371 325 300 c 0
 394 231 394 115 325 46 c 0
164 172 m 0
 179 158 212 159 224 171 c 0
 245 192 244 237 224 257 c 0
 210 271 179 272 164 257 c 0
 145 238 144 193 164 172 c 0
EndSplineSet
EndChar

StartChar: Eacute
Encoding: 201 201 149
Width: 394
VWidth: 0
Flags: HMW
LayerCount: 2
Fore
SplineSet
223 258 m 0
 198 230 198 114 223 86 c 0
 236 71 254 71 267 86 c 0
 292 114 292 230 267 258 c 0
 254 273 236 273 223 258 c 0
204 71 m 0
 164 111 164 234 203 273 c 0
 223 294 266 294 287 273 c 0
 326 234 326 111 286 71 c 0
 264 49 226 49 204 71 c 0
314 58 m 0
 377 121 377 225 314 288 c 0
 248 354 146 354 80 288 c 0
 17 225 17 121 80 58 c 0
 146 -8 248 -8 314 58 c 0
325 46 m 0
 254 -25 140 -25 69 46 c 0
 0 115 0 231 69 300 c 0
 140 371 254 371 325 300 c 0
 394 231 394 115 325 46 c 0
151 58 m 0
 122 58 l 0
 122 234 l 0
 82 234 l 0
 82 251 l 0
 113 252 129 263 134 286 c 0
 151 286 l 0
 151 58 l 0
EndSplineSet
EndChar

StartChar: Ecircumflex
Encoding: 202 202 150
Width: 394
VWidth: 0
Flags: HMW
LayerCount: 2
Fore
SplineSet
192 298 m 0
 187 274 163 258 128 261 c 0
 128 232 l 0
 174 232 l 0
 174 58 l 0
 224 58 l 0
 224 298 l 0
 192 298 l 0
69 46 m 0
 0 115 0 231 69 300 c 0
 140 371 254 371 325 300 c 0
 394 231 394 115 325 46 c 0
 254 -25 140 -25 69 46 c 0
EndSplineSet
EndChar

StartChar: Edieresis
Encoding: 203 203 151
Width: 394
VWidth: 0
Flags: HMW
LayerCount: 2
Fore
SplineSet
116 58 m 0
 272 58 l 0
 272 94 l 0
 165 94 l 0
 188 119 229 137 249 157 c 0
 288 196 287 248 256 278 c 0
 230 304 166 308 134 276 c 0
 111 253 115 228 115 213 c 0
 160 210 l 0
 157 223 159 244 170 255 c 0
 181 266 209 266 222 253 c 0
 238 237 236 200 213 177 c 0
 190 154 100 122 116 58 c 0
325 46 m 0
 254 -25 140 -25 69 46 c 0
 0 115 0 231 69 300 c 0
 140 371 254 371 325 300 c 0
 394 231 394 115 325 46 c 0
EndSplineSet
EndChar

StartChar: Igrave
Encoding: 204 204 152
Width: 394
VWidth: 0
Flags: HMW
LayerCount: 2
Fore
SplineSet
169 104 m 0
 164 110 162 126 163 137 c 0
 119 132 l 0
 117 110 122 90 135 78 c 0
 161 51 226 45 259 79 c 0
 288 107 289 159 246 182 c 0
 281 205 282 253 257 278 c 0
 225 310 169 309 141 281 c 0
 127 267 125 245 123 230 c 0
 164 225 l 0
 164 237 167 250 176 259 c 0
 189 272 207 272 220 260 c 0
 235 244 237 179 168 197 c 0
 168 164 l 0
 235 179 244 121 225 102 c 0
 208 85 189 84 169 104 c 0
325 46 m 0
 254 -25 140 -25 69 46 c 0
 0 115 0 231 69 300 c 0
 140 371 254 371 325 300 c 0
 394 231 394 115 325 46 c 0
EndSplineSet
EndChar

StartChar: Iacute
Encoding: 205 205 153
Width: 394
VWidth: 0
Flags: HMW
LayerCount: 2
Fore
SplineSet
195 58 m 0
 239 58 l 0
 239 116 l 0
 273 116 l 0
 273 150 l 0
 239 150 l 0
 239 296 l 0
 203 302 l 0
 92 145 l 0
 92 116 l 0
 195 116 l 0
 195 58 l 0
195 150 m 0
 141 150 l 0
 195 226 l 0
 195 150 l 0
69 46 m 0
 0 115 0 231 69 300 c 0
 140 371 254 371 325 300 c 0
 394 231 394 115 325 46 c 0
 254 -25 140 -25 69 46 c 0
EndSplineSet
EndChar

StartChar: Icircumflex
Encoding: 206 206 154
Width: 394
VWidth: 0
Flags: HMW
LayerCount: 2
Fore
SplineSet
164 130 m 0
 122 122 l 0
 125 102 129 86 142 73 c 0
 165 50 221 38 258 75 c 0
 288 105 293 174 262 205 c 0
 241 226 206 235 170 220 c 0
 170 259 l 0
 265 259 l 0
 265 298 l 0
 128 298 l 0
 128 156 l 0
 165 156 l 0
 165 193 207 204 228 183 c 0
 244 167 243 117 223 97 c 0
 212 86 187 85 173 99 c 0
 166 111 164 121 164 130 c 0
69 46 m 0
 0 115 0 231 69 300 c 0
 140 371 254 371 325 300 c 0
 394 231 394 115 325 46 c 0
 254 -25 140 -25 69 46 c 0
EndSplineSet
EndChar

StartChar: Idieresis
Encoding: 207 207 155
Width: 394
VWidth: 0
Flags: HMW
LayerCount: 2
Fore
SplineSet
217 260 m 0
 225 252 226 240 227 228 c 0
 270 241 l 0
 267 253 261 270 251 280 c 0
 224 307 176 310 141 275 c 0
 106 241 92 121 136 77 c 0
 167 46 220 46 248 74 c 0
 311 137 247 258 154 200 c 0
 156 222 161 245 173 257 c 0
 184 268 207 270 217 260 c 0
220 173 m 0
 236 157 230 106 220 96 c 0
 207 83 183 82 170 95 c 0
 149 117 156 159 169 172 c 0
 182 185 207 186 220 173 c 0
69 46 m 0
 0 115 0 231 69 300 c 0
 140 371 254 371 325 300 c 0
 394 231 394 115 325 46 c 0
 254 -25 140 -25 69 46 c 0
EndSplineSet
EndChar

StartChar: Eth
Encoding: 208 208 156
Width: 394
VWidth: 0
Flags: HMW
LayerCount: 2
Fore
SplineSet
284 267 m 0
 284 298 l 0
 114 298 l 0
 114 260 l 0
 235 260 l 0
 180 193 146 129 137 58 c 0
 187 58 l 0
 200 124 231 193 284 267 c 0
325 46 m 0
 254 -25 140 -25 69 46 c 0
 0 115 0 231 69 300 c 0
 140 371 254 371 325 300 c 0
 394 231 394 115 325 46 c 0
EndSplineSet
EndChar

StartChar: Ntilde
Encoding: 209 209 157
Width: 394
VWidth: 0
Flags: HMW
LayerCount: 2
Fore
SplineSet
264 79 m 0
 299 114 285 168 247 186 c 0
 283 215 280 255 256 279 c 0
 228 307 170 307 142 279 c 0
 118 255 115 215 151 186 c 0
 113 168 99 114 134 79 c 0
 166 47 232 47 264 79 c 0
228 95 m 0
 215 82 183 82 170 95 c 0
 154 111 155 143 170 158 c 0
 183 171 215 171 228 158 c 0
 243 143 244 111 228 95 c 0
177 205 m 0
 166 216 160 244 174 258 c 0
 186 270 212 270 224 258 c 0
 235 247 235 219 221 205 c 0
 211 195 187 195 177 205 c 0
325 46 m 0
 254 -25 140 -25 69 46 c 0
 0 115 0 231 69 300 c 0
 140 371 254 371 325 300 c 0
 394 231 394 115 325 46 c 0
EndSplineSet
EndChar

StartChar: Ograve
Encoding: 210 210 158
Width: 394
VWidth: 0
Flags: HMW
LayerCount: 2
Fore
SplineSet
325 300 m 0
 394 231 394 115 325 46 c 0
 254 -25 140 -25 69 46 c 0
 0 115 0 231 69 300 c 0
 140 371 254 371 325 300 c 0
165 96 m 0
 157 104 160 110 159 122 c 0
 112 113 l 0
 115 101 121 84 131 74 c 0
 158 47 208 44 243 79 c 0
 278 113 287 238 248 277 c 0
 217 308 162 308 134 280 c 0
 100 246 101 190 136 155 c 0
 159 132 207 136 230 154 c 0
 228 132 223 109 211 97 c 0
 200 86 175 86 165 96 c 0
162 181 m 0
 146 197 151 247 163 259 c 0
 177 273 201 272 214 259 c 0
 235 237 228 195 215 182 c 0
 202 169 175 168 162 181 c 0
EndSplineSet
EndChar

StartChar: Oacute
Encoding: 211 211 159
Width: 394
VWidth: 0
Flags: HMW
LayerCount: 2
Fore
SplineSet
295 76 m 0
 329 110 329 247 295 281 c 0
 270 306 222 306 196 281 c 0
 163 247 163 110 196 76 c 0
 222 51 270 51 295 76 c 0
325 46 m 0
 254 -25 140 -25 69 46 c 0
 0 115 0 231 69 300 c 0
 140 371 254 371 325 300 c 0
 394 231 394 115 325 46 c 0
263 96 m 0
 252 84 240 84 230 96 c 0
 212 117 213 239 230 260 c 0
 240 272 252 272 263 260 c 0
 280 239 281 117 263 96 c 0
120 298 m 0
 114 269 104 262 69 261 c 0
 69 232 l 0
 107 232 l 0
 107 58 l 0
 154 58 l 0
 154 298 l 0
 120 298 l 0
EndSplineSet
EndChar

StartChar: Ocircumflex
Encoding: 212 212 160
Width: 447
VWidth: 0
Flags: HMW
LayerCount: 2
Fore
SplineSet
18 205 m 0
 305 205 l 0
 200 317 l 0
 288 317 l 0
 430 173 l 0
 288 29 l 0
 200 29 l 0
 305 141 l 0
 18 141 l 0
 18 205 l 0
EndSplineSet
EndChar

StartChar: Otilde
Encoding: 213 213 161
Width: 419
VWidth: 0
Flags: HMW
LayerCount: 2
Fore
SplineSet
402 174 m 0
 344 150 311 124 276 77 c 0
 268 105 288 138 308 167 c 0
 18 167 l 0
 18 181 l 0
 308 181 l 0
 288 210 268 243 276 271 c 0
 311 224 344 198 402 174 c 0
EndSplineSet
EndChar

StartChar: Odieresis
Encoding: 214 214 162
Width: 508
VWidth: 0
Flags: HMW
LayerCount: 2
Fore
SplineSet
112 181 m 0
 397 181 l 0
 377 210 357 243 365 271 c 0
 400 224 433 198 491 174 c 0
 433 150 400 124 365 77 c 0
 357 105 377 138 397 167 c 0
 112 167 l 0
 132 138 152 105 144 77 c 0
 109 124 76 150 18 174 c 0
 76 198 109 224 144 271 c 0
 152 243 132 210 112 181 c 0
EndSplineSet
EndChar

StartChar: multiply
Encoding: 215 215 163
Width: 229
VWidth: 0
Flags: HMW
LayerCount: 2
Fore
SplineSet
18 62 m 0
 46 70 79 50 108 30 c 0
 108 316 l 0
 79 296 46 276 18 284 c 0
 65 319 91 352 115 410 c 0
 139 352 165 319 212 284 c 0
 184 276 151 296 122 316 c 0
 122 30 l 0
 151 50 184 70 212 62 c 0
 165 27 139 -6 115 -64 c 0
 91 -6 65 27 18 62 c 0
EndSplineSet
EndChar

StartChar: Oslash
Encoding: 216 216 164
Width: 374
VWidth: 0
Flags: HMW
LayerCount: 2
Fore
SplineSet
18 239 m 0
 61 299 l 0
 225 160 l 0
 263 218 l 0
 349 47 l 0
 161 75 l 0
 204 130 l 0
 18 239 l 0
EndSplineSet
EndChar

StartChar: Ugrave
Encoding: 217 217 165
Width: 462
VWidth: 0
Flags: HMW
LayerCount: 2
Fore
SplineSet
18 219 m 0
 284 187 l 0
 248 276 l 0
 445 173 l 0
 248 70 l 0
 284 159 l 0
 18 127 l 0
 18 219 l 0
EndSplineSet
EndChar

StartChar: Uacute
Encoding: 218 218 166
Width: 374
VWidth: 0
Flags: HMW
LayerCount: 2
Fore
SplineSet
61 47 m 0
 18 107 l 0
 204 216 l 0
 161 271 l 0
 349 299 l 0
 263 128 l 0
 225 186 l 0
 61 47 l 0
EndSplineSet
EndChar

StartChar: Ucircumflex
Encoding: 219 219 167
Width: 459
VWidth: 0
Flags: HMW
LayerCount: 2
Fore
SplineSet
442 173 m 0
 364 162 237 124 153 83 c 0
 149 86 l 0
 216 170 l 0
 18 164 l 0
 18 182 l 0
 216 176 l 0
 149 260 l 0
 153 263 l 0
 237 222 364 184 442 173 c 0
EndSplineSet
EndChar

StartChar: Udieresis
Encoding: 220 220 168
Width: 463
VWidth: 0
Flags: HMW
LayerCount: 2
Fore
SplineSet
259 99 m 0
 290 128 l 0
 70 128 l 0
 67 128 41 128 29 140 c 0
 14 155 14 191 29 206 c 0
 41 218 67 218 70 218 c 0
 290 218 l 0
 259 247 l 0
 240 265 234 297 252 315 c 0
 272 335 299 338 325 308 c 0
 446 173 l 0
 325 38 l 0
 299 8 272 11 252 31 c 0
 234 49 240 81 259 99 c 0
EndSplineSet
EndChar

StartChar: Yacute
Encoding: 221 221 169
Width: 464
VWidth: 0
Flags: HMW
LayerCount: 2
Fore
SplineSet
18 181 m 0
 336 181 l 0
 336 281 l 0
 444 173 l 0
 336 65 l 0
 336 165 l 0
 18 165 l 0
 18 181 l 0
EndSplineSet
EndChar

StartChar: Thorn
Encoding: 222 222 170
Width: 464
VWidth: 0
Flags: HMW
LayerCount: 2
Fore
SplineSet
18 145 m 0
 18 201 l 0
 336 201 l 0
 336 281 l 0
 444 173 l 0
 336 65 l 0
 336 145 l 0
 18 145 l 0
EndSplineSet
EndChar

StartChar: germandbls
Encoding: 223 223 171
Width: 417
VWidth: 0
Flags: HMW
LayerCount: 2
Fore
SplineSet
63 218 m 0
 85 218 l 0
 85 129 l 0
 63 129 l 0
 63 218 l 0
31 218 m 0
 31 129 l 0
 18 129 l 0
 18 218 l 0
 31 218 l 0
142 218 m 0
 142 129 l 0
 103 129 l 0
 103 218 l 0
 142 218 l 0
156 129 m 0
 156 218 l 0
 284 218 l 0
 284 269 l 0
 400 174 l 0
 284 78 l 0
 284 129 l 0
 156 129 l 0
EndSplineSet
EndChar

StartChar: agrave
Encoding: 224 224 172
Width: 436
VWidth: 0
Flags: HMW
LayerCount: 2
Fore
SplineSet
28 248 m 0
 28 99 l 0
 18 99 l 0
 18 248 l 0
 28 248 l 0
66 248 m 0
 80 248 l 0
 80 99 l 0
 66 99 l 0
 66 248 l 0
135 248 m 0
 135 99 l 0
 111 99 l 0
 111 248 l 0
 135 248 l 0
156 248 m 0
 190 248 l 0
 190 99 l 0
 156 99 l 0
 156 248 l 0
419 174 m 0
 365 147 331 117 297 48 c 0
 293 48 l 0
 293 99 l 0
 204 99 l 0
 204 248 l 0
 293 248 l 0
 293 300 l 0
 297 300 l 0
 331 231 365 201 419 174 c 0
EndSplineSet
EndChar

StartChar: aacute
Encoding: 225 225 173
Width: 414
VWidth: 0
Flags: HMW
LayerCount: 2
Fore
SplineSet
18 246 m 0
 275 246 l 0
 275 294 l 0
 396 173 l 0
 275 52 l 0
 275 100 l 0
 18 100 l 0
 18 246 l 0
EndSplineSet
EndChar

StartChar: acircumflex
Encoding: 226 226 174
Width: 462
VWidth: 0
Flags: HMW
LayerCount: 2
Fore
SplineSet
183 173 m 0
 394 173 l 0
 75 265 l 0
 183 173 l 0
162 173 m 0
 18 297 l 0
 445 173 l 0
 18 49 l 0
 162 173 l 0
EndSplineSet
EndChar

StartChar: atilde
Encoding: 227 227 175
Width: 462
VWidth: 0
Flags: HMW
LayerCount: 2
Fore
SplineSet
162 173 m 0
 18 297 l 0
 445 173 l 0
 18 49 l 0
 162 173 l 0
183 173 m 0
 75 81 l 0
 394 173 l 0
 183 173 l 0
EndSplineSet
EndChar

StartChar: adieresis
Encoding: 228 228 176
Width: 458
VWidth: 0
Flags: HMW
LayerCount: 2
Fore
SplineSet
119 173 m 0
 18 346 l 0
 441 173 l 0
 18 0 l 0
 119 173 l 0
EndSplineSet
EndChar

StartChar: aring
Encoding: 229 229 177
Width: 465
VWidth: 0
Flags: HMW
LayerCount: 2
Fore
SplineSet
44 104 m 0
 22 126 18 158 18 165 c 0
 18 304 l 0
 35 304 l 0
 35 280 36 260 49 247 c 0
 60 236 71 232 91 232 c 0
 272 232 l 0
 272 274 l 0
 448 158 l 0
 272 42 l 0
 272 84 l 0
 91 84 l 0
 74 84 56 92 44 104 c 0
EndSplineSet
EndChar

StartChar: ae
Encoding: 230 230 178
Width: 465
VWidth: 0
Flags: HMW
LayerCount: 2
Fore
SplineSet
49 99 m 0
 36 86 35 66 35 42 c 0
 18 42 l 0
 18 181 l 0
 18 188 22 220 44 242 c 0
 56 254 74 262 91 262 c 0
 272 262 l 0
 272 304 l 0
 448 188 l 0
 272 72 l 0
 272 114 l 0
 91 114 l 0
 71 114 60 110 49 99 c 0
EndSplineSet
EndChar

StartChar: ccedilla
Encoding: 231 231 179
Width: 392
VWidth: 0
Flags: HMW
LayerCount: 2
Fore
SplineSet
78 257 m 0
 57 272 61 291 71 301 c 0
 83 313 100 312 111 298 c 0
 176 205 l 0
 190 210 l 0
 174 303 l 0
 172 313 167 334 175 342 c 0
 190 357 206 357 221 342 c 0
 229 334 224 313 222 303 c 0
 206 210 l 0
 220 205 l 0
 285 298 l 0
 296 312 313 313 325 301 c 0
 335 291 339 272 318 257 c 0
 230 195 l 0
 235 181 l 0
 327 198 l 0
 337 200 359 205 367 197 c 0
 382 182 382 166 367 151 c 0
 359 143 337 148 327 150 c 0
 235 166 l 0
 230 151 l 0
 318 89 l 0
 339 74 335 55 325 45 c 0
 313 33 296 34 285 48 c 0
 220 141 l 0
 206 136 l 0
 222 43 l 0
 224 33 229 12 221 4 c 0
 206 -11 190 -11 175 4 c 0
 167 12 172 33 174 43 c 0
 190 136 l 0
 176 141 l 0
 111 48 l 0
 100 34 83 33 71 45 c 0
 61 55 57 74 78 89 c 0
 166 151 l 0
 161 167 l 0
 69 150 l 0
 59 148 37 143 29 151 c 0
 14 166 14 182 29 197 c 0
 37 205 59 200 69 198 c 0
 161 182 l 0
 166 195 l 0
 78 257 l 0
EndSplineSet
EndChar

StartChar: egrave
Encoding: 232 232 180
Width: 441
VWidth: 0
Flags: HMW
LayerCount: 2
Fore
SplineSet
424 176 m 0
 424 172 l 0
 299 147 272 107 217 36 c 0
 213 36 l 0
 213 82 l 0
 18 82 l 0
 18 266 l 0
 213 266 l 0
 213 312 l 0
 217 312 l 0
 272 241 299 201 424 176 c 0
EndSplineSet
EndChar

StartChar: eacute
Encoding: 233 233 181
Width: 418
VWidth: 0
Flags: HMW
LayerCount: 2
Fore
SplineSet
203 244 m 0
 203 324 l 0
 268 324 l 0
 401 173 l 0
 268 22 l 0
 203 22 l 0
 203 102 l 0
 18 102 l 0
 18 244 l 0
 203 244 l 0
215 232 m 0
 30 232 l 0
 30 114 l 0
 215 114 l 0
 215 31 l 0
 340 173 l 0
 215 315 l 0
 215 232 l 0
EndSplineSet
EndChar

StartChar: ecircumflex
Encoding: 234 234 182
Width: 418
VWidth: 0
Flags: HMW
LayerCount: 2
Fore
SplineSet
203 244 m 0
 203 324 l 0
 268 324 l 0
 401 173 l 0
 268 22 l 0
 203 22 l 0
 203 102 l 0
 18 102 l 0
 18 244 l 0
 203 244 l 0
261 232 m 0
 76 232 l 0
 76 114 l 0
 261 114 l 0
 261 31 l 0
 386 173 l 0
 261 315 l 0
 261 232 l 0
EndSplineSet
EndChar

StartChar: edieresis
Encoding: 235 235 183
Width: 433
VWidth: 0
Flags: HMW
LayerCount: 2
Fore
SplineSet
112 255 m 0
 300 255 l 0
 334 296 l 0
 416 205 l 0
 416 146 l 0
 192 51 l 0
 192 97 l 0
 18 97 l 0
 18 161 l 0
 112 255 l 0
117 245 m 0
 29 157 l 0
 236 157 l 0
 204 115 l 0
 403 201 l 0
 334 278 l 0
 306 245 l 0
 117 245 l 0
EndSplineSet
EndChar

StartChar: igrave
Encoding: 236 236 184
Width: 433
VWidth: 0
Flags: HMW
LayerCount: 2
Fore
SplineSet
306 102 m 0
 334 69 l 0
 403 146 l 0
 204 232 l 0
 236 190 l 0
 29 190 l 0
 116 102 l 0
 306 102 l 0
300 92 m 0
 113 92 l 0
 18 186 l 0
 18 250 l 0
 192 250 l 0
 192 296 l 0
 416 201 l 0
 416 142 l 0
 334 51 l 0
 300 92 l 0
EndSplineSet
EndChar

StartChar: iacute
Encoding: 237 237 185
Width: 348
VWidth: 0
Flags: HMW
LayerCount: 2
Fore
SplineSet
143 324 m 0
 331 162 l 0
 188 22 l 0
 143 55 l 0
 143 63 l 0
 63 63 l 0
 18 100 l 0
 18 269 l 0
 143 269 l 0
 143 324 l 0
156 296 m 0
 156 256 l 0
 31 256 l 0
 31 110 l 0
 156 110 l 0
 156 61 l 0
 285 184 l 0
 156 296 l 0
EndSplineSet
EndChar

StartChar: icircumflex
Encoding: 238 238 186
Width: 348
VWidth: 0
Flags: HMW
LayerCount: 2
Fore
SplineSet
156 50 m 0
 285 162 l 0
 156 285 l 0
 156 236 l 0
 31 236 l 0
 31 90 l 0
 156 90 l 0
 156 50 l 0
143 22 m 0
 143 77 l 0
 18 77 l 0
 18 246 l 0
 63 283 l 0
 143 283 l 0
 143 291 l 0
 188 324 l 0
 331 184 l 0
 143 22 l 0
EndSplineSet
EndChar

StartChar: idieresis
Encoding: 239 239 187
Width: 437
VWidth: 0
Flags: HMW
LayerCount: 2
Fore
SplineSet
283 308 m 0
 419 172 l 0
 283 36 l 0
 283 85 l 0
 53 85 l 0
 18 120 l 0
 51 185 l 0
 18 262 l 0
 283 262 l 0
 283 308 l 0
35 251 m 0
 66 185 l 0
 35 120 l 0
 294 120 l 0
 294 92 l 0
 387 185 l 0
 294 278 l 0
 294 251 l 0
 35 251 l 0
EndSplineSet
EndChar

StartChar: ntilde
Encoding: 241 241 188
Width: 437
VWidth: 0
Flags: HMW
LayerCount: 2
Fore
SplineSet
283 85 m 0
 18 85 l 0
 51 162 l 0
 18 227 l 0
 53 262 l 0
 283 262 l 0
 283 311 l 0
 419 175 l 0
 283 39 l 0
 283 85 l 0
66 162 m 0
 35 96 l 0
 294 96 l 0
 294 69 l 0
 387 162 l 0
 294 255 l 0
 294 227 l 0
 31 227 l 0
 66 162 l 0
EndSplineSet
EndChar

StartChar: ograve
Encoding: 242 242 189
Width: 380
VWidth: 0
Flags: HMW
LayerCount: 2
Fore
SplineSet
17 74 m 0
 192 74 l 0
 192 13 l 0
 353 174 l 0
 192 335 l 0
 192 272 l 0
 17 272 l 0
 19 282 21 294 32 305 c 0
 80 353 234 371 318 287 c 0
 376 228 377 118 318 59 c 0
 234 -25 80 -7 32 41 c 0
 21 52 19 64 17 74 c 0
EndSplineSet
EndChar

StartChar: oacute
Encoding: 243 243 190
Width: 473
VWidth: 0
Flags: HMW
LayerCount: 2
Fore
SplineSet
161 255 m 0
 214 179 l 0
 240 179 l 0
 187 255 l 0
 161 255 l 0
120 255 m 0
 173 179 l 0
 199 179 l 0
 146 255 l 0
 120 255 l 0
80 255 m 0
 133 179 l 0
 159 179 l 0
 106 255 l 0
 80 255 l 0
39 255 m 0
 92 179 l 0
 118 179 l 0
 65 255 l 0
 39 255 l 0
161 92 m 0
 187 92 l 0
 240 168 l 0
 214 168 l 0
 161 92 l 0
120 92 m 0
 146 92 l 0
 199 168 l 0
 173 168 l 0
 120 92 l 0
80 92 m 0
 106 92 l 0
 159 168 l 0
 133 168 l 0
 80 92 l 0
39 92 m 0
 65 92 l 0
 118 168 l 0
 92 168 l 0
 39 92 l 0
456 173 m 0
 401 152 388 133 359 80 c 0
 335 113 335 134 354 168 c 0
 254 168 l 0
 192 80 l 0
 18 80 l 0
 83 173 l 0
 18 267 l 0
 192 267 l 0
 254 179 l 0
 354 179 l 0
 335 213 335 234 359 267 c 0
 388 214 401 195 456 173 c 0
EndSplineSet
EndChar

StartChar: ocircumflex
Encoding: 244 244 191
Width: 385
VWidth: 0
Flags: HMW
LayerCount: 2
Fore
SplineSet
239 140 m 0
 111 246 l 0
 104 328 l 0
 231 222 l 0
 239 140 l 0
225 124 m 0
 143 117 l 0
 16 223 l 0
 98 230 l 0
 225 124 l 0
254 23 m 0
 261 53 274 62 292 69 c 0
 228 121 l 0
 242 137 l 0
 305 86 l 0
 307 103 313 117 341 131 c 0
 343 83 348 64 368 24 c 0
 364 19 l 0
 321 30 301 31 254 23 c 0
EndSplineSet
EndChar

StartChar: otilde
Encoding: 245 245 192
Width: 432
VWidth: 0
Flags: HMW
LayerCount: 2
Fore
SplineSet
183 241 m 0
 241 183 l 0
 76 183 l 0
 18 241 l 0
 183 241 l 0
183 104 m 0
 18 104 l 0
 76 162 l 0
 241 162 l 0
 183 104 l 0
415 169 m 0
 377 153 354 139 326 104 c 0
 315 130 313 142 327 162 c 0
 246 162 l 0
 246 183 l 0
 327 183 l 0
 313 203 315 215 326 241 c 0
 354 206 377 192 415 176 c 0
 415 169 l 0
EndSplineSet
EndChar

StartChar: odieresis
Encoding: 246 246 193
Width: 385
VWidth: 0
Flags: HMW
LayerCount: 2
Fore
SplineSet
368 322 m 0
 348 282 343 263 341 215 c 0
 313 229 307 243 305 260 c 0
 242 209 l 0
 228 225 l 0
 292 277 l 0
 274 284 261 293 254 323 c 0
 301 315 321 316 364 327 c 0
 368 322 l 0
239 206 m 0
 231 124 l 0
 104 18 l 0
 111 100 l 0
 239 206 l 0
225 222 m 0
 98 116 l 0
 16 123 l 0
 143 229 l 0
 225 222 l 0
EndSplineSet
EndChar

StartChar: divide
Encoding: 247 247 194
Width: 444
VWidth: 0
Flags: HMW
LayerCount: 2
Fore
SplineSet
141 346 m 0
 270 243 l 0
 249 199 234 158 297 108 c 0
 351 65 l 0
 353 103 362 126 390 162 c 0
 393 88 395 61 427 -8 c 0
 353 8 326 4 253 -10 c 0
 282 25 302 39 339 50 c 0
 285 92 l 0
 222 142 184 118 146 88 c 0
 18 191 l 0
 59 227 80 231 133 226 c 0
 116 276 115 298 141 346 c 0
EndSplineSet
EndChar

StartChar: oslash
Encoding: 248 248 195
Width: 483
VWidth: 0
Flags: HMW
LayerCount: 2
Fore
SplineSet
360 183 m 0
 338 216 331 237 330 284 c 0
 377 229 398 206 466 173 c 0
 398 140 377 117 330 62 c 0
 331 109 338 130 360 163 c 0
 291 163 l 0
 212 163 197 129 184 73 c 0
 18 73 l 0
 27 125 42 145 87 173 c 0
 42 201 27 221 18 273 c 0
 184 273 l 0
 197 217 212 183 291 183 c 0
 360 183 l 0
EndSplineSet
EndChar

StartChar: ugrave
Encoding: 249 249 196
Width: 444
VWidth: 0
Flags: HMW
LayerCount: 2
Fore
SplineSet
270 94 m 0
 141 -9 l 0
 115 39 116 61 133 111 c 0
 80 106 59 110 18 146 c 0
 146 249 l 0
 184 219 222 195 285 245 c 0
 339 287 l 0
 302 298 282 312 253 347 c 0
 326 333 353 329 427 345 c 0
 395 276 393 249 390 175 c 0
 362 211 353 234 351 272 c 0
 297 229 l 0
 234 179 249 138 270 94 c 0
EndSplineSet
EndChar

StartChar: uacute
Encoding: 250 250 197
Width: 415
VWidth: 0
Flags: HMW
LayerCount: 2
Fore
SplineSet
398 178 m 0
 398 170 l 0
 377 165 361 163 342 144 c 0
 314 116 317 84 299 66 c 0
 287 54 264 54 250 68 c 0
 237 81 237 106 256 125 c 0
 277 146 324 155 352 169 c 0
 155 164 75 94 33 136 c 0
 13 156 13 191 33 211 c 0
 75 253 155 184 352 179 c 0
 324 193 277 201 256 222 c 0
 237 241 237 266 250 279 c 0
 264 293 287 293 299 281 c 0
 317 263 314 231 342 203 c 0
 361 184 377 183 398 178 c 0
EndSplineSet
EndChar

StartChar: ucircumflex
Encoding: 251 251 198
Width: 436
VWidth: 0
Flags: HMW
LayerCount: 2
Fore
SplineSet
296 179 m 0
 268 199 269 217 269 229 c 0
 269 255 285 277 304 289 c 0
 313 267 322 246 345 223 c 0
 372 196 394 188 419 174 c 0
 394 160 372 152 345 125 c 0
 322 102 313 81 304 59 c 0
 285 71 269 93 269 119 c 0
 269 131 268 149 296 169 c 0
 246 176 205 157 174 126 c 0
 130 82 89 82 66 105 c 0
 38 133 50 171 18 174 c 0
 50 177 38 215 66 243 c 0
 89 266 130 266 174 222 c 0
 205 191 246 172 296 179 c 0
EndSplineSet
EndChar

StartChar: udieresis
Encoding: 252 252 199
Width: 463
VWidth: 0
Flags: HMW
LayerCount: 2
Fore
SplineSet
317 89 m 0
 301 105 345 146 307 146 c 0
 254 146 l 0
 224 146 198 75 173 75 c 0
 32 75 l 0
 18 75 14 87 22 101 c 0
 61 161 l 0
 66 170 66 176 61 185 c 0
 22 245 l 0
 14 259 18 271 32 271 c 0
 173 271 l 0
 198 271 224 200 254 200 c 0
 307 200 l 0
 345 200 301 241 317 257 c 0
 335 275 351 275 373 254 c 0
 436 193 l 0
 450 179 450 167 436 153 c 0
 373 92 l 0
 351 71 335 71 317 89 c 0
EndSplineSet
EndChar

StartChar: yacute
Encoding: 253 253 200
Width: 485
VWidth: 0
Flags: HMW
LayerCount: 2
Fore
SplineSet
357 293 m 0
 447 203 l 0
 472 178 472 169 447 143 c 0
 357 53 l 0
 344 40 324 40 314 50 c 0
 290 74 325 125 312 138 c 0
 306 144 282 144 269 131 c 0
 246 108 240 38 191 38 c 0
 51 38 l 0
 21 38 17 72 21 86 c 0
 44 161 l 0
 47 168 47 178 44 185 c 0
 21 260 l 0
 17 274 21 308 51 308 c 0
 191 308 l 0
 240 308 246 238 269 215 c 0
 282 202 306 202 312 208 c 0
 325 221 290 272 314 296 c 0
 324 306 344 306 357 293 c 0
EndSplineSet
EndChar

StartChar: thorn
Encoding: 254 254 201
Width: 459
VWidth: 0
Flags: HMW
LayerCount: 2
Fore
SplineSet
273 131 m 0
 17 131 l 0
 17 155 l 0
 333 155 l 0
 283 113 254 75 241 50 c 0
 213 50 l 0
 230 79 239 97 273 131 c 0
241 297 m 0
 254 272 283 234 333 192 c 0
 17 192 l 0
 17 216 l 0
 273 216 l 0
 239 250 230 268 213 297 c 0
 241 297 l 0
313 297 m 0
 346 247 388 208 442 174 c 0
 388 140 346 101 313 50 c 0
 283 50 l 0
 308 93 344 134 401 174 c 0
 344 214 308 255 283 297 c 0
 313 297 l 0
EndSplineSet
EndChar
